<?xml version="1.0" standalone="no"?>
<!DOCTYPE svg PUBLIC "-//W3C//DTD SVG 20010904//EN"
 "http://www.w3.org/TR/2001/REC-SVG-20010904/DTD/svg10.dtd">
<svg version="1.0" xmlns="http://www.w3.org/2000/svg"
 width="1280.000000pt" height="1043.000000pt" viewBox="0 0 1280.000000 1043.000000"
 preserveAspectRatio="xMidYMid meet">
<metadata>
Created by potrace 1.15, written by Peter Selinger 2001-2017
</metadata>
<g transform="translate(0.000000,1043.000000) scale(0.100000,-0.100000)"
fill="#009688" stroke="none">
<path d="M7050 10248 c0 -282 -39 -512 -125 -743 -90 -240 -230 -465 -535
-855 -356 -456 -494 -693 -585 -1007 -70 -239 -89 -413 -82 -736 7 -312 37
-518 129 -882 42 -166 140 -492 182 -605 27 -73 24 -78 51 75 67 377 189 671
507 1228 153 266 282 520 336 659 139 356 182 673 147 1098 l-5 55 15 -50 c58
-193 76 -525 41 -750 -46 -293 -140 -576 -366 -1100 -193 -448 -290 -716 -354
-976 -36 -146 -66 -311 -66 -363 l0 -28 93 7 c305 22 542 81 776 191 537 254
870 741 978 1434 22 144 25 639 5 790 -96 698 -323 1348 -720 2060 -112 202
-372 620 -413 665 -5 5 -9 -67 -9 -167z"/>
<path d="M2549 7680 c172 -223 258 -440 282 -718 15 -161 2 -330 -53 -702 -40
-273 -42 -296 -42 -530 -1 -202 2 -260 17 -328 67 -305 211 -549 474 -803 132
-127 250 -221 438 -345 134 -89 377 -234 383 -229 1 1 -15 43 -37 93 -77 175
-128 374 -151 592 -6 58 -15 283 -20 500 -9 388 -16 490 -46 640 -50 250 -172
491 -340 669 -42 45 -72 81 -68 81 19 0 145 -103 211 -173 81 -86 135 -162
187 -264 113 -226 157 -403 241 -982 55 -378 86 -523 152 -726 34 -104 126
-315 137 -315 14 0 202 165 296 260 548 550 715 1186 464 1769 -130 305 -348
566 -681 817 -156 118 -288 199 -503 308 -414 211 -859 361 -1392 470 -10 3 9
-30 51 -84z"/>
<path d="M11475 7453 c-22 -1 -105 -8 -185 -14 -1026 -76 -1900 -410 -2414
-923 -499 -498 -654 -1134 -439 -1800 40 -123 130 -343 144 -352 24 -15 276
191 464 380 158 158 291 312 545 626 547 678 829 923 1251 1086 87 33 279 88
286 81 2 -2 -24 -14 -58 -27 -101 -36 -309 -144 -420 -218 -338 -223 -529
-439 -879 -992 -284 -448 -403 -610 -605 -818 -71 -74 -185 -179 -253 -233
-67 -55 -117 -99 -110 -99 7 0 79 11 159 25 1074 182 1748 506 2155 1037 147
192 249 379 434 793 194 437 327 666 498 861 169 192 407 370 659 492 51 25
92 46 91 48 -5 5 -333 34 -498 44 -149 9 -726 11 -825 3z"/>
<path d="M6182 5477 c-9 -42 -55 -386 -69 -512 -25 -230 -25 -849 0 -1055 65
-536 201 -999 418 -1431 l50 -101 -33 7 c-18 4 -91 28 -163 52 -941 322 -1646
846 -2181 1621 -107 156 -110 159 -85 95 99 -252 241 -520 384 -723 331 -471
782 -846 1368 -1141 96 -48 391 -176 494 -215 l50 -19 -145 -17 c-280 -34
-566 -91 -820 -163 -201 -57 -486 -150 -469 -153 8 -1 118 16 245 38 313 56
564 95 784 121 155 19 239 23 515 23 l330 1 155 -47 c258 -78 465 -133 1153
-304 732 -182 999 -254 1286 -344 613 -193 1126 -432 1501 -700 150 -107 214
-160 394 -325 194 -177 260 -211 319 -164 37 29 50 87 44 194 -11 170 -81 394
-194 620 -124 247 -145 329 -147 552 -1 134 -3 154 -20 172 -34 38 -436 152
-771 219 -421 85 -807 136 -1760 232 -275 28 -594 61 -708 75 -114 14 -211 25
-214 25 -9 0 5 213 23 349 94 732 310 1241 725 1711 45 51 77 91 71 89 -23 -9
-321 -281 -409 -374 -347 -367 -542 -731 -633 -1182 -29 -147 -60 -398 -60
-491 0 -27 -2 -51 -5 -54 -6 -5 -264 38 -453 77 -133 27 -128 23 -251 185
-307 402 -495 809 -605 1310 -71 324 -96 619 -105 1250 -4 278 -8 501 -9 497z"/>
<path d="M3165 2293 c-111 -7 -306 -37 -415 -63 -266 -65 -512 -176 -930 -420
-369 -214 -562 -308 -772 -375 -253 -80 -539 -113 -819 -96 -91 6 -180 14
-198 17 -17 4 -31 4 -31 1 0 -11 447 -304 615 -404 1131 -671 2243 -961 3115
-812 775 132 1281 584 1433 1280 14 63 28 134 31 158 l7 44 -116 -7 c-327 -18
-677 -92 -1245 -261 -671 -201 -949 -255 -1302 -255 -97 0 -214 7 -279 16
-116 16 -329 66 -358 85 -14 9 -13 9 4 5 182 -43 524 -57 749 -31 313 37 544
104 1000 292 472 195 649 258 899 318 147 36 385 74 472 76 127 3 122 10 -60
78 -713 266 -1318 385 -1800 354z"/>
</g>
</svg>
