<svg width="1071" height="1070" viewBox="0 0 1071 1070" fill="none" xmlns="http://www.w3.org/2000/svg">
<path d="M543.298 0.546014C484.895 0.964374 430.09 1.55008 421.555 1.80109L406.076 2.30312L413.021 4.64594C459.375 20.3762 498.366 56.5225 532.588 115.511C544.218 135.592 630.903 295.74 630.4 296.493C630.233 296.828 615.089 306.785 596.932 318.499L563.798 339.752L587.895 340.254C601.115 340.589 649.729 341.007 695.999 341.342C742.27 341.593 786.281 342.095 793.895 342.346L807.701 342.848L863.343 250.976C893.967 200.438 923.252 152.159 928.44 143.625C933.544 135.174 937.727 128.146 937.644 128.062C937.476 127.895 920.24 136.764 899.322 147.725C878.404 158.686 861.168 167.639 861.168 167.555C860.833 167.137 812.973 79.0302 807.618 68.9059C800.171 54.8491 795.652 48.49 786.449 38.7841C769.379 20.7946 747.457 8.16016 721.938 1.63375C714.825 -0.207032 684.285 -0.374376 543.298 0.546014Z" fill="#90C495"/>
<path d="M358.383 11.0887C341.23 13.2642 322.572 22.1334 308.849 34.5168C304.582 38.3657 182.588 226.209 183.676 227.213C184.011 227.632 235.887 258.423 298.892 295.824C365.997 335.485 413.774 363.347 414.192 362.929C414.611 362.511 442.39 317.411 476.026 262.69L537.023 163.288L530.747 151.323C485.23 64.3877 421.806 9.66628 367.838 10.5867C363.989 10.6703 359.805 10.9214 358.383 11.0887Z" fill="#90C495"/>
<path d="M850.206 417.483C765.781 468.941 736.245 487.349 736.496 488.353C736.664 489.106 755.155 523.746 777.579 565.331C800.087 606.916 824.937 653.019 832.886 667.746L847.361 694.521L868.112 694.772C954.88 695.776 1028.01 668.499 1056.46 624.655C1066.58 608.924 1071.69 589.429 1070.6 570.268C1069.51 552.195 1072.77 559.558 1016.46 448.693C988.265 393.134 964.92 347.701 964.669 347.784C964.418 347.868 912.877 379.161 850.206 417.483Z" fill="#90C495"/>
<path d="M145.438 351.214C97.3267 351.549 46.4542 352.135 32.23 352.553L6.54271 353.139L41.6849 380.583C61.0131 395.728 76.8271 408.446 76.8271 408.864C76.8271 409.366 60.8458 440.325 41.2665 477.726C21.771 515.128 4.86927 548.513 3.69786 551.943C-2.74487 571.272 -0.736746 592.022 9.47122 612.522C15.914 625.324 23.6954 635.866 35.4095 647.748C64.9457 677.619 93.7288 689.667 147.948 694.939C159.411 696.026 196.813 697.198 208.61 696.779L216.977 696.445L264.168 619.216L311.276 541.986L317.718 545.417C321.233 547.341 337.047 555.876 352.944 564.494C368.842 573.112 381.895 580.057 382.062 579.89C382.229 579.722 361.479 540.899 335.875 493.54C310.355 446.266 282.576 394.724 274.125 379.077L258.73 350.629L245.844 350.545C238.732 350.545 193.549 350.796 145.438 351.214Z" fill="#90C495"/>
<path d="M622.953 741.544L562.877 849.899L582.791 886.38C593.836 906.545 620.862 955.995 642.867 996.325L683.03 1069.71L683.532 1063.68C683.866 1060.42 684.536 1042.76 685.038 1024.61C685.54 1006.45 686.209 989.464 686.46 986.954L686.879 982.352H751.055C809.374 982.352 815.901 982.184 822.594 980.846C839.078 977.499 856.482 970.219 871.291 960.43C882.504 952.983 898.066 937.336 904.007 927.547C906.434 923.614 939.484 862.031 977.555 790.743C1015.63 719.371 1047.59 659.713 1048.51 658.123C1050.1 655.446 1049.85 655.529 1045.25 659.797C1016.96 685.735 984.751 701.298 943.668 708.745C916.056 713.765 920.323 713.681 799.25 713.932L687.966 714.267L686.042 677.619C684.954 657.454 683.866 639.213 683.532 637.038L683.03 633.105L622.953 741.544Z" fill="#90C495"/>
<path d="M17.4199 653.354C17.4199 653.605 25.8708 669.419 36.1624 688.412C46.4541 707.406 78.333 766.227 106.949 819.192C135.565 872.072 161.67 920.267 164.933 926.292C169.954 935.412 172.046 938.34 177.986 944.365C195.306 961.685 219.655 972.98 252.538 979.005C274.042 982.854 276.97 983.021 382.062 983.356L481.799 983.69V849.062V714.434L429.755 713.849C401.055 713.598 340.142 713.096 294.374 712.845C132.218 711.924 139.916 712.008 129.54 710.502C87.1186 704.226 51.6417 687.241 24.6157 660.131C20.6831 656.115 17.4199 653.103 17.4199 653.354Z" fill="#90C495"/>
</svg>
