<svg width="9480" height="2817" viewBox="0 0 9480 2817" fill="none" xmlns="http://www.w3.org/2000/svg">
<g clip-path="url(#clip0_5_2)">
<path fill-rule="evenodd" clip-rule="evenodd" d="M2880.53 -53.8304C2844.25 -40.5404 2778.82 -21.9313 2741.26 -14.491C2578.16 18.0061 2368.42 9.39221 2117.22 -40.1035C2053.1 -52.7694 2051.18 -54.7229 2094.32 -61.6686C2123.87 -66.4093 2203.68 -89.5553 2252.57 -107.771C2299.39 -124.988 2338.3 -141.408 2390.91 -167.325H3094.21C3009.66 -111.325 2947.46 -78.7307 2880.53 -53.8304ZM1709.54 2365.79C3512.64 1910.37 6378.73 1914.02 8611 1916.87H8611.03C9305.9 1917.76 9939.34 1918.57 10460.2 1905.42V-167.325H3094.21C3121.44 -185.355 3150.98 -205.812 3183.74 -229.22C3302.54 -313.625 3365.25 -352.163 3434.6 -383.057C3518.18 -420.053 3614.49 -443.905 3710.35 -451.83C3741.52 -454.257 3772.07 -455.964 3778.29 -455.877C3784.21 -455.429 3788.98 -456.092 3788.88 -457.03C3788.53 -460.472 3627.03 -530.996 3566.65 -554.336C3160.27 -710.768 2772.48 -748.9 2480.38 -661.039C2220.76 -583.084 2062.9 -417.738 2033.32 -192.799C2032.17 -184.315 2031.07 -175.397 2030.15 -167.325H118.854C88.9911 -178.973 60.7699 -191.237 34.2897 -204.09C-20.1815 -230.471 -43.6565 -244.026 -110.188 -287.133C-181.867 -333.333 -205.418 -340.849 -224.005 -323.354C-235.677 -312.531 -238.256 -293.77 -232.805 -260.578C-223.646 -207.912 -192.682 -141.143 -147.016 -75.7815C-96.9368 -4.37048 -87.1763 20.2906 -79.3928 89.9635C-74.7844 131.839 -73.4666 138.002 -67.1061 142.829C-61.9829 146.949 -36.3537 152.092 0 157.105V1557.51C-49.5604 1694.42 -86.7465 1769.53 -137.052 1836.38C-188.468 1904.44 -263.819 1971.38 -345.719 2021.47C-362.285 2031.71 -375.573 2040.22 -375.169 2040.79C-373.308 2042.12 -260.726 2035.68 -204.238 2031C-170.285 2028.19 -71.8778 2015.43 0 2005.1V3502.91C117.523 3011.15 658.394 2671.44 1449.61 2436.91C1469.45 2465.18 1490.42 2493.59 1512.57 2522.22C1557.13 2580.12 1658.96 2698.59 1674.35 2710.73C1676.21 2712.06 1675.28 2689.35 1672.09 2658.06C1663.11 2569.83 1669.06 2496.03 1690.98 2419.69C1696.15 2401.84 1702.21 2384.11 1709.54 2365.79ZM1709.54 2365.79C1734.77 2302.69 1775.03 2232.64 1845.87 2126.89C1952.54 1967.39 1991.97 1886.72 2012.95 1784.17C2029.16 1706.09 2030.09 1650.75 2017.42 1550.03C2005.1 1452.75 1988.32 1389.72 1945.41 1280.19C1925.83 1230.24 1882.08 1132.89 1864.19 1099.52C1864 1099.17 1863.81 1098.82 1863.63 1098.47L1863.33 1097.91C1863.01 1097.31 1862.7 1096.72 1862.39 1096.15C1858.66 1089.09 1856.45 1084.93 1854.91 1085.16C1852.69 1085.5 1851.86 1095.03 1849.83 1118.32L1849.83 1118.33C1849.64 1120.56 1849.43 1122.91 1849.21 1125.4C1838.41 1246.51 1806.24 1344.27 1715.73 1533.57C1672.12 1624.03 1636.29 1709.59 1622.34 1755.64C1586.36 1873.59 1581.82 1974.8 1607.27 2106.11L1610.72 2123.08L1604.02 2108.15C1578.13 2050.51 1561.43 1947.49 1566.18 1875.44C1572.51 1781.6 1595.49 1688.61 1655.74 1513.98C1707.17 1364.69 1731.66 1276.26 1745.16 1191.89C1752.77 1144.51 1757.72 1091.47 1756.07 1075.2L1755.18 1066.44L1723.74 1073.03C1620.61 1094.34 1541.81 1124.01 1465.66 1169.49C1290.94 1274.36 1193.09 1442.47 1178.4 1664.39C1175.49 1710.48 1190.24 1865.49 1201.86 1911.78C1249.06 2095.6 1328.09 2263.75 1449.61 2436.91C1533.5 2412.04 1620.22 2388.35 1709.54 2365.79ZM0 2005.1C36.1082 1999.9 65.5215 1995.32 76.7054 1992.92C81.259 1992.09 93.4838 1989.49 108.47 1986.3C118.027 1984.27 128.707 1981.99 139.237 1979.79C486.089 1907.48 772.979 1761.65 931.617 1576.84C1085.63 1397.43 1118.13 1191.12 1023.73 992.929C1006.2 956.34 968.552 891.768 963.499 889.614C954.851 886.057 875.626 962.425 817.647 1030.45C768.892 1087.35 728.521 1141.82 652.055 1252.08C487.439 1490.07 399.244 1580.06 260.778 1651.01C232.212 1665.45 168.603 1691.74 165.997 1689.88C165.253 1689.35 173.721 1684.37 184.882 1678.69C218.118 1662.65 285.485 1619.02 320.915 1590.62C428.875 1504.87 487.016 1428.26 588.55 1238.69C670.961 1085.1 706.311 1028.78 768.451 954.155C790.264 927.645 825.728 889.402 847.157 869.292C868.213 848.915 883.833 832.785 881.45 833.116C879.067 833.447 854.907 840.294 828.119 848.458C468.303 956.198 249.179 1089.44 127.54 1274.82C83.6134 1341.85 54.8465 1405.17 5.05456 1543.45C3.355 1548.21 1.67047 1552.89 0 1557.51V2005.1ZM0 157.105V-167.325H118.854C242.584 -119.064 394.5 -81.3705 567.557 -56.0859C668.125 -41.5037 761.31 -31.6068 1016.3 -9.28992C1255.95 11.6669 1328.17 19.083 1418.48 31.2827L1472.75 38.6556L1585.05 22.7339C1679.01 9.6792 1707.48 4.45459 1759.64 -8.82117C1833.7 -27.3615 1917.91 -51.4352 2022.67 -83.76C2065.21 -96.65 2102.11 -107.172 2104.87 -107.237C2110.75 -107.103 2016.69 -64.5264 1950.08 -37.1862C1865.91 -2.64624 1770.36 28.7145 1676.13 52.5956L1627.31 64.7726L1644.94 68.3519C1681.24 75.6816 1785.74 101.774 1819.95 112.251C2028.83 176.826 2194.31 272.816 2321.99 404.517C2377.13 461.263 2434.01 538.393 2475.74 612.55C2486.29 631.391 2485.17 630.594 2443.78 586.849C2236.97 369.689 1980.28 239.097 1649.69 182.866C1624.41 178.763 1598.8 174.707 1592.54 174.307L1581.09 173.678L1601.32 202.911C1688.96 327.802 1750 466.223 1789.2 630.841C1804.27 694.108 1823.99 887.767 1822.8 960.907C1822.05 1000.99 1817.34 1110.79 1815.62 1124.35C1815.41 1125.65 1806.94 1056.07 1796.73 969.29C1773.56 772.301 1755.66 681.19 1721.17 583.182C1667.76 431.643 1590.8 313.202 1473.49 201.954L1471.11 199.684C1445.91 175.639 1435.26 165.48 1422.59 160.808C1413.32 157.391 1402.97 156.911 1385.04 156.081C1384.1 156.038 1383.13 155.993 1382.15 155.947C1316.57 152.685 1227.37 151.436 1225.49 153.284C1224.56 154.364 1224.65 161.967 1225.51 170.415C1228.47 199.51 1225.91 279.504 1220.72 326.866C1204.11 472.27 1149.32 595.374 1042.88 726.606C1015.88 759.864 923.102 859.057 915.559 862.961C913.581 863.87 923.2 849.842 936.895 831.758C1063.2 665.085 1120.52 495.623 1129.2 262.164C1131 218.764 1128.98 151.463 1125.92 151.889C1124.9 152.031 1091.53 153.177 1052.27 154.189C1013.02 155.202 903.372 159.966 808.865 164.213C481.385 179.255 348.359 181.557 202.334 174.877C132.714 171.811 54.3649 164.603 0 157.105ZM2193.8 -167.325H2030.15C2028.87 -156.014 2027.95 -146.365 2027.8 -141.901L2026.82 -127.804L2066.09 -135.481C2106.77 -143.231 2148.26 -153.492 2193.8 -167.325ZM2193.8 -167.325H2390.91C2431.79 -187.466 2480.94 -213.341 2548.48 -249.783C2697.73 -330.169 2774.23 -362.057 2879.6 -388.437C2955.37 -407.214 3072.24 -419.01 3135.57 -414.166C3141.48 -413.719 3141.82 -413.766 3136.77 -415.919C3126.29 -420.492 3052.19 -426.06 3012.19 -425.579C2989.78 -425.32 2949.73 -421.976 2916.7 -417.388C2796.54 -400.692 2703.62 -370.648 2481.6 -276.025C2362.67 -225.576 2272.24 -191.151 2193.8 -167.325ZM3122.54 1641.74C3056.88 1580.11 3020.69 1516.29 3003.67 1430.45C2993.43 1380.79 2992.48 1327.3 2999.35 1208.31C3004.27 1121.01 3004.22 1113.72 2996.77 1040.51C2990.68 977.268 2987.81 959.264 2980.53 938.699C2948.01 846.446 2891.22 776.92 2793.6 709.894C2744.62 676.404 2701.45 652.577 2633.51 622.675C2585.05 601.168 2497.71 567.298 2495.83 569.146C2495.52 569.506 2502.31 581.889 2511.39 596.491C2543.17 647.6 2566.87 707.446 2581.65 774.562C2585.54 792.424 2595.77 862.391 2604.38 930.045C2619.8 1051.01 2625.43 1082.59 2640.42 1128.1C2665.41 1203.95 2714.62 1273.58 2777.48 1321.32C2793.21 1333.41 2804.57 1343.26 2803.2 1343.44C2796.74 1344.34 2750.56 1318.08 2725.87 1299.3C2695.55 1276.23 2674.75 1255 2653.8 1225.55C2608.13 1160.19 2587.52 1106.89 2540.48 929.723C2509.72 814.063 2494.55 770.165 2465.61 709.777C2450.73 678.848 2412.69 617.186 2408.94 617.706C2404.18 618.368 2345.43 678.882 2316.46 713.05C2147.42 911.043 2110.83 1117.92 2214.85 1288.44C2268.81 1377.72 2351.34 1449.06 2472.69 1511.84C2529.56 1541.38 2577.07 1560.48 2653.74 1584.41C2801.39 1630.84 2957.66 1656.72 3142.57 1665.61C3146.07 1666.08 3138.55 1656.65 3122.54 1641.74Z" fill="#009688"/>
</g>
<defs>
<clipPath id="clip0_5_2">
<rect width="9480" height="2817" fill="white"/>
</clipPath>
</defs>
</svg>
