<svg width="10616" height="4238" viewBox="0 0 10616 4238" fill="none" xmlns="http://www.w3.org/2000/svg">
<g clip-path="url(#clip0_15_2)">
<mask id="mask0_15_2" style="mask-type:luminance" maskUnits="userSpaceOnUse" x="0" y="0" width="10616" height="4238">
<path d="M10616 0H0V4238H10616V0Z" fill="white"/>
</mask>
<g mask="url(#mask0_15_2)">
<path fill-rule="evenodd" clip-rule="evenodd" d="M8739.64 2115.24C9444.86 2116.14 10087.7 2116.96 10616.4 2103.62V0H0.357239V2473.75C-73.2738 2589.11 -106.835 2639.26 -144.554 2691.83C-237.972 2821.73 -332.847 2923.83 -422.304 2990.5C-458.044 3017.19 -474.876 3027.95 -525.651 3056.85C-580.195 3088.07 -593.102 3100.93 -587.962 3119.03C-584.841 3130.33 -573.442 3138.39 -549.877 3146.08C-512.314 3157.96 -458.125 3160.35 -399.87 3152.65C-336.16 3144.11 -316.714 3146.09 -268.491 3164.64C-239.531 3175.83 -235.052 3177.06 -229.735 3174.54C-218.672 3169.66 -160.118 3083.4 -117.356 3009.13C-80.5341 2945.43 -48.5102 2884.27 0.357239 2782V3724.9C62.0411 3466.79 238.64 3249.96 505.867 3067.82C499.443 3217.67 522.836 3334.97 576.899 3431.24C605.845 3482.72 637.517 3523.02 711.089 3602.51C788.856 3686.11 826.959 3737.4 854.522 3794.86C881.607 3851.59 899.842 3923.6 904.826 3994.18C905.901 4008.49 906.96 4020.07 907.476 4020C908.976 4019.23 942.957 3943.39 959.062 3904.85C973.6 3870.04 1022.81 3732.44 1029.46 3708.12C1030.46 3704.87 1032.91 3696 1035.9 3685.12L1035.91 3685.1V3685.09C1037.82 3678.15 1039.96 3670.39 1042.09 3662.76C1112.45 3411.3 1114.38 3174.13 1047.29 3007.64C1018.89 2937.17 979.309 2880.07 930.29 2837.63C975.479 2817.81 1022.03 2798.52 1069.88 2779.77C1102.28 2815.61 1141.8 2847.74 1188.29 2875.89C1217.46 2893.43 1323.87 2936.37 1358.1 2944.48C1516.63 2981.1 1675.89 2982.35 1862.89 2948.29C1915.89 2938.78 2027.95 2912.36 2041.11 2906.41C2042.61 2905.64 2027.43 2898.55 2005.88 2890.02C1945.12 2865.96 1898.85 2837.03 1856.34 2796.79C1812.23 2754.83 1775.59 2702.21 1717.33 2596.11C1713.91 2589.9 1710.57 2583.86 1707.29 2578C3535.46 2108.6 6462.48 2112.34 8739.62 2115.24H8739.64ZM1439.24 2652.7C1425.53 2641.63 1412.07 2629.58 1398.6 2616.4C1373.21 2591.65 1329.39 2539.18 1285 2479.96C1191.86 2356.52 1138.82 2302.31 1063.24 2254.15L1061.81 2253.24C1060.88 2252.65 1059.99 2252.09 1059.12 2251.54L1058.83 2251.35C1044.27 2242.12 1038.32 2238.34 1038.85 2236.77C1039.22 2235.69 1042.7 2235.66 1048.58 2235.61C1049.47 2235.6 1050.4 2235.59 1051.39 2235.58C1079.3 2235.19 1157.83 2239.6 1197.15 2243.73C1283.37 2252.82 1330.3 2263.23 1398.12 2288.17C1468.32 2314.05 1504.21 2333.43 1549.79 2370.53C1606.76 2416.61 1645.16 2466.89 1707.29 2578C1615.07 2601.67 1525.64 2626.55 1439.24 2652.7ZM1410.38 2661.52C1419.96 2658.56 1429.58 2655.62 1439.24 2652.7C1491.67 2695.03 1547.84 2723.05 1622.78 2745.17L1635.06 2748.66L1623.01 2747.98C1576.52 2745.36 1503.46 2721.34 1457.93 2693.79C1441.93 2684.08 1426.39 2673.59 1410.38 2661.52ZM1410.38 2661.52C1367.07 2628.87 1320.32 2584.59 1251.83 2512.57C1171.61 2428.27 1122.06 2382.25 1071.45 2344.79C1043.03 2323.74 1010.01 2302.5 998.802 2298.06L992.769 2295.67L986.414 2318.48C965.368 2393.18 958.044 2454.8 961.963 2520.05C968.201 2620.23 1004.57 2707.53 1069.88 2779.77C1177.04 2737.76 1290.74 2698.4 1410.38 2661.52ZM679.399 2961.24C668.647 2938.5 659.789 2918.22 651.149 2896.83C626.316 2835.82 603.231 2758.08 608.492 2753.63C611.615 2751.06 666.633 2748.33 696.52 2749.28C787.709 2752.37 866.893 2782.74 930.29 2837.63C841.246 2876.69 757.477 2917.86 679.399 2961.24ZM627.719 2990.77C644.656 2980.82 661.884 2970.97 679.399 2961.24C694.393 2992.95 713.068 3029.44 739.967 3080.36C839.822 3268.8 868.775 3357.03 868.22 3471.7C867.976 3495.28 863.595 3545.82 861.494 3546.89C860.894 3547.2 860.507 3539.97 860.58 3530.74C861.362 3503.56 855.675 3444.68 849.113 3411.86C829.636 3312.14 799.239 3248.11 709.664 3117.37C671.706 3061.88 646.808 3023.86 627.719 2990.77ZM627.719 2990.77C610.334 2960.63 597.768 2934.58 584.544 2903.14C574.601 2879.87 561.613 2843.69 555.725 2822.85C549.538 2802.16 544.284 2786.47 543.692 2788.14C543.1 2789.81 539.383 2807.94 535.636 2828.24C518.905 2916.45 508.95 2995.88 505.867 3067.82C544.604 3041.41 585.246 3015.74 627.719 2990.77ZM0.357239 2782C23.0366 2734.54 49.3438 2678.23 81.4423 2608.7C110.727 2545.42 144.809 2472.07 157.464 2446.05C170.12 2420.02 180.691 2397.8 180.945 2397.08C181.706 2394.94 226.422 2416.45 254.207 2432.35C403.998 2517.23 495.421 2612.23 561.614 2751.41C568.799 2766.5 574.713 2777.56 574.79 2775.95C574.795 2769.69 541.377 2675.34 528.776 2646.39C479.029 2532.24 417.078 2454.63 327.585 2394.43C298.36 2374.96 246.893 2346.15 226.852 2338.22C221.034 2335.91 216.031 2333.39 215.638 2332.41C215.068 2330.56 246.148 2272.62 270.531 2230.82L271.598 2228.98C278.225 2217.53 282.051 2210.92 287.433 2206.01C294.788 2199.31 305.047 2195.79 329.329 2187.46L331.619 2186.67C444.202 2147.67 547.802 2137.5 665.064 2153.97C740.886 2164.66 806.569 2183.85 943.305 2235.53C1003.55 2258.29 1051.94 2276.36 1051.16 2275.78C1042.87 2270.05 972.635 2229.72 946.667 2215.63C899.218 2190.04 765.829 2137.24 719.324 2125.63C598.326 2095.43 487.055 2088.4 375.616 2103.36L349.624 2106.69L353.922 2099.4C356.306 2095.45 367.65 2080.07 378.909 2064.92C527.857 1867.71 700.381 1744.08 912.619 1682.45C955.283 1670.21 956.183 1669.75 940.278 1670.26C877.604 1672.4 807.846 1683.45 752.011 1700.27C622.529 1739.13 503.589 1814.82 390.474 1929.57C372.014 1948.4 319.489 2007.91 302.377 2029.18L294.055 2039.5L302.651 2003.43C318.998 1933.67 330.896 1860.52 336.856 1793.74C341.567 1740.88 345.623 1664.9 343.539 1668.7C342.647 1670.53 337.01 1698.24 331.013 1730.44C316.617 1809.95 303.8 1873.21 290.802 1927.96C281.791 1966.58 275.551 1986.98 252.216 2052.88L224.53 2131.76L201.297 2164.76C162.675 2219.71 133.322 2264.44 38.3038 2414.12C24.5456 2435.79 11.9545 2455.58 0.357239 2473.75V2782ZM1833.05 1596.27C1770.46 1618.32 1716.43 1620.34 1654.49 1602.36C1618.53 1592.2 1583.21 1574.68 1507.7 1529.82C1452.25 1496.98 1447.46 1494.54 1397.04 1474.58C1353.59 1457.11 1340.84 1452.88 1324.92 1450.66C1253.53 1440.64 1188.77 1454.2 1111.8 1495.33C1073.28 1516.01 1043.04 1536.17 1000.43 1570.48C969.919 1594.88 918.128 1640.53 918.698 1642.39C918.829 1642.72 929.232 1642.48 941.867 1641.49C986.088 1638.03 1033.28 1642.83 1082.2 1655.94C1095.21 1659.45 1144.46 1676.5 1191.64 1693.82C1276.01 1724.76 1298.58 1731.79 1333.44 1737.43C1391.54 1746.81 1453.79 1738.24 1506.35 1713.32C1519.6 1707.13 1529.9 1703.03 1529.56 1703.99C1527.95 1708.53 1495.1 1729.82 1474.44 1739.61C1449.06 1751.61 1428.11 1758.02 1401.74 1761.74C1343.48 1769.44 1301.62 1764.85 1169.75 1735.51C1083.64 1716.4 1049.78 1711.43 1000.45 1709.87C975.166 1709.12 921.919 1713.09 920.989 1715.71C919.806 1719.06 939.466 1778.02 951.991 1808.57C1024.18 1986.33 1147.11 2080.46 1293.96 2070.26C1370.68 2065.24 1445.35 2035.45 1527.6 1977.35C1566.21 1950.17 1594.83 1925.56 1636.5 1883.53C1716.97 1802.68 1786.92 1709.22 1855.47 1591.26C1856.96 1589.13 1848.24 1590.85 1833.05 1596.27ZM641.635 1179.35C638.022 1207.6 628 1256.71 620.124 1283.81C586.052 1401.54 509.257 1535.85 391.653 1683.39C361.612 1721.05 359.681 1721.64 369.772 1691.07C376.697 1670.12 388.63 1610.06 393.301 1571.89C401.509 1507.08 402.898 1459.44 400.784 1330.11C398.826 1205.2 403.918 1144.32 422.409 1066.44C435.83 1010.5 467.762 930.032 492.416 890.245C494.715 886.527 494.8 886.288 491.676 888.863C485.13 894.167 456.347 940.758 443.091 967.09C435.656 981.842 424.256 1009.18 416.055 1032.34C386.209 1116.62 374.341 1187.61 360.923 1364.97C349.318 1515 335.672 1604.88 311.904 1684.49L303.605 1712.79L294.715 1707.36C289.797 1704.6 275.681 1695.2 263.288 1686.48C126.158 1590.82 71.5373 1431.44 108.618 1235.14C150.235 1014.23 306.745 773.46 546.964 560.656C582.717 529.074 683.649 447.341 686.019 448.279C686.666 448.535 685.482 451.877 683.183 455.595C681.014 459.637 671.766 480.205 662.779 501.421C635.442 566.825 618.372 637.926 614.221 705.158C610.904 761.014 614.842 815.115 629.759 921.474C646.997 1042.09 650.118 1110.3 641.635 1179.35Z" fill="#90C495"/>
</g>
<path d="M3523 1312.98V800.013H3686.11V855.117H3555.73V1028.45H3677.67V1083.55H3555.73V1257.88H3688.22V1312.98H3523Z" fill="black"/>
<path d="M3892.91 928.256C3891.32 902.874 3884.9 883.17 3873.64 869.144C3862.38 855.117 3848.57 848.104 3832.2 848.104C3820.24 848.104 3809.77 851.778 3800.79 859.125C3791.91 866.472 3784.96 876.575 3779.94 889.432C3775.02 902.29 3772.55 916.901 3772.55 933.265C3772.55 946.958 3774.27 958.73 3777.7 968.582C3781.22 978.267 3785.7 986.366 3791.16 992.878C3796.61 999.223 3802.33 1004.48 3808.32 1008.66C3814.3 1012.67 3819.8 1015.92 3824.81 1018.43L3852.26 1032.45C3859.3 1035.96 3867.13 1040.8 3875.75 1046.98C3884.46 1053.16 3892.78 1061.59 3900.69 1072.28C3908.7 1082.8 3915.3 1096.32 3920.49 1112.85C3925.68 1129.39 3928.27 1149.67 3928.27 1173.72C3928.27 1201.44 3924.45 1226.49 3916.79 1248.86C3909.23 1271.24 3898.14 1289.02 3883.54 1302.21C3869.02 1315.4 3851.38 1322 3830.62 1322C3811.26 1322 3794.5 1316.07 3780.34 1304.22C3766.26 1292.36 3755.18 1275.83 3747.08 1254.62C3739.08 1233.42 3734.55 1208.79 3733.49 1180.73H3767.27C3768.15 1200.1 3771.58 1216.13 3777.57 1228.82C3783.64 1241.35 3791.29 1250.7 3800.53 1256.88C3809.85 1262.89 3819.88 1265.89 3830.62 1265.89C3843.11 1265.89 3854.33 1262.05 3864.27 1254.37C3874.21 1246.52 3882.09 1235.67 3887.89 1221.81C3893.7 1207.78 3896.6 1191.42 3896.6 1172.72C3896.6 1155.69 3894.09 1141.83 3889.08 1131.14C3884.07 1120.45 3877.47 1111.77 3869.28 1105.09C3861.1 1098.41 3852.26 1092.57 3842.76 1087.56L3809.5 1069.52C3788.39 1058 3771.67 1041.55 3759.36 1020.18C3747.04 998.806 3740.88 970.836 3740.88 936.271C3740.88 907.55 3744.97 882.503 3753.15 861.129C3761.42 839.588 3772.51 822.89 3786.41 811.034C3800.4 799.011 3816.01 793 3833.26 793C3850.68 793 3866.16 798.928 3879.71 810.784C3893.26 822.472 3903.99 838.503 3911.91 858.875C3919.92 879.246 3924.14 902.373 3924.58 928.256H3892.91Z" fill="black"/>
<path d="M3967.3 855.117V800.013H4170.01V855.117H4085.02V1312.98H4052.29V855.117H3967.3Z" fill="black"/>
<path d="M4220.52 1312.98V800.013H4383.63V855.117H4253.25V1028.45H4375.18V1083.55H4253.25V1257.88H4385.74V1312.98H4220.52Z" fill="black"/>
<path d="M4547.14 1312.98V800.013H4710.25V855.117H4579.87V1028.45H4701.81V1083.55H4579.87V1257.88H4712.36V1312.98H4547.14Z" fill="black"/>
<path d="M4917.05 928.256C4915.46 902.874 4909.04 883.17 4897.78 869.144C4886.52 855.117 4872.71 848.104 4856.34 848.104C4844.38 848.104 4833.91 851.778 4824.93 859.125C4816.05 866.472 4809.1 876.575 4804.08 889.432C4799.15 902.29 4796.69 916.901 4796.69 933.265C4796.69 946.958 4798.41 958.73 4801.84 968.582C4805.36 978.267 4809.84 986.366 4815.3 992.878C4820.75 999.223 4826.47 1004.48 4832.45 1008.66C4838.44 1012.67 4843.94 1015.92 4848.95 1018.43L4876.4 1032.45C4883.44 1035.96 4891.27 1040.8 4899.89 1046.98C4908.6 1053.16 4916.91 1061.59 4924.83 1072.28C4932.84 1082.8 4939.44 1096.32 4944.63 1112.85C4949.82 1129.39 4952.41 1149.67 4952.41 1173.72C4952.41 1201.44 4948.59 1226.49 4940.93 1248.86C4933.37 1271.24 4922.28 1289.02 4907.68 1302.21C4893.16 1315.4 4875.52 1322 4854.76 1322C4835.4 1322 4818.64 1316.07 4804.48 1304.22C4790.4 1292.36 4779.32 1275.83 4771.22 1254.62C4763.22 1233.42 4758.68 1208.79 4757.63 1180.73H4791.41C4792.29 1200.1 4795.72 1216.13 4801.71 1228.82C4807.78 1241.35 4815.43 1250.7 4824.67 1256.88C4833.99 1262.89 4844.02 1265.89 4854.76 1265.89C4867.25 1265.89 4878.47 1262.05 4888.41 1254.37C4898.35 1246.52 4906.23 1235.67 4912.03 1221.81C4917.84 1207.78 4920.74 1191.42 4920.74 1172.72C4920.74 1155.69 4918.23 1141.83 4913.22 1131.14C4908.2 1120.45 4901.61 1111.77 4893.42 1105.09C4885.24 1098.41 4876.4 1092.57 4866.9 1087.56L4833.64 1069.52C4812.53 1058 4795.81 1041.55 4783.49 1020.18C4771.18 998.806 4765.02 970.836 4765.02 936.271C4765.02 907.55 4769.11 882.503 4777.29 861.129C4785.56 839.588 4796.65 822.89 4810.55 811.034C4824.54 799.011 4840.15 793 4857.4 793C4874.82 793 4890.3 798.928 4903.85 810.784C4917.4 822.472 4928.13 838.503 4936.05 858.875C4944.06 879.246 4948.28 902.373 4948.72 928.256H4917.05Z" fill="black"/>
<path d="M5288.11 800.013H5320.84V1139.66C5320.84 1174.72 5316.48 1206.03 5307.77 1233.58C5299.15 1260.97 5286.96 1282.59 5271.22 1298.46C5255.47 1314.15 5236.99 1322 5215.79 1322C5194.59 1322 5176.11 1314.15 5160.36 1298.46C5144.61 1282.59 5132.39 1260.97 5123.68 1233.58C5115.05 1206.03 5110.74 1174.72 5110.74 1139.66V800.013H5143.47V1134.65C5143.47 1159.69 5146.37 1181.99 5152.18 1201.52C5157.99 1220.89 5166.26 1236.17 5176.99 1247.36C5187.81 1258.38 5200.75 1263.89 5215.79 1263.89C5230.83 1263.89 5243.77 1258.38 5254.59 1247.36C5265.41 1236.17 5273.68 1220.89 5279.4 1201.52C5285.21 1181.99 5288.11 1159.69 5288.11 1134.65V800.013Z" fill="black"/>
<path d="M5600.51 800.013V1312.98H5568.84L5421.56 910.222H5418.92V1312.98H5386.19V800.013H5417.87L5565.67 1203.78H5568.31V800.013H5600.51Z" fill="black"/>
<path d="M5918.32 928.256C5916.74 902.874 5910.32 883.17 5899.06 869.144C5887.79 855.117 5873.98 848.104 5857.62 848.104C5845.65 848.104 5835.18 851.778 5826.21 859.125C5817.32 866.472 5810.37 876.575 5805.36 889.432C5800.43 902.29 5797.97 916.901 5797.97 933.265C5797.97 946.958 5799.68 958.73 5803.11 968.582C5806.63 978.267 5811.12 986.366 5816.58 992.878C5822.03 999.223 5827.75 1004.48 5833.73 1008.66C5839.71 1012.67 5845.21 1015.92 5850.23 1018.43L5877.68 1032.45C5884.71 1035.96 5892.54 1040.8 5901.17 1046.98C5909.88 1053.16 5918.19 1061.59 5926.11 1072.28C5934.11 1082.8 5940.71 1096.32 5945.9 1112.85C5951.09 1129.39 5953.69 1149.67 5953.69 1173.72C5953.69 1201.44 5949.86 1226.49 5942.21 1248.86C5934.64 1271.24 5923.56 1289.02 5908.95 1302.21C5894.44 1315.4 5876.8 1322 5856.03 1322C5836.68 1322 5819.92 1316.07 5805.75 1304.22C5791.68 1292.36 5780.59 1275.83 5772.5 1254.62C5764.49 1233.42 5759.96 1208.79 5758.91 1180.73H5792.69C5793.57 1200.1 5797 1216.13 5802.98 1228.82C5809.05 1241.35 5816.71 1250.7 5825.94 1256.88C5835.27 1262.89 5845.3 1265.89 5856.03 1265.89C5868.53 1265.89 5879.74 1262.05 5889.69 1254.37C5899.63 1246.52 5907.5 1235.67 5913.31 1221.81C5919.11 1207.78 5922.02 1191.42 5922.02 1172.72C5922.02 1155.69 5919.51 1141.83 5914.5 1131.14C5909.48 1120.45 5902.88 1111.77 5894.7 1105.09C5886.52 1098.41 5877.68 1092.57 5868.17 1087.56L5834.92 1069.52C5813.8 1058 5797.09 1041.55 5784.77 1020.18C5772.45 998.806 5766.3 970.836 5766.3 936.271C5766.3 907.55 5770.39 882.503 5778.57 861.129C5786.84 839.588 5797.92 822.89 5811.82 811.034C5825.81 799.011 5841.43 793 5858.67 793C5876.09 793 5891.58 798.928 5905.13 810.784C5918.67 822.472 5929.41 838.503 5937.33 858.875C5945.33 879.246 5949.56 902.373 5950 928.256H5918.32Z" fill="black"/>
<path d="M6040.23 800.013V1312.98H6007.5V800.013H6040.23Z" fill="black"/>
<path d="M6091.07 855.117V800.013H6293.77V855.117H6208.78V1312.98H6176.06V855.117H6091.07Z" fill="black"/>
<path d="M6377.01 800.013V1312.98H6344.28V800.013H6377.01Z" fill="black"/>
<path d="M6670.67 1056.5C6670.67 1110.6 6665.53 1157.36 6655.23 1196.76C6644.94 1236.17 6630.82 1266.56 6612.87 1287.94C6594.92 1309.31 6574.42 1320 6551.37 1320C6528.32 1320 6507.82 1309.31 6489.88 1287.94C6471.93 1266.56 6457.81 1236.17 6447.52 1196.76C6437.22 1157.36 6432.08 1110.6 6432.08 1056.5C6432.08 1002.4 6437.22 955.641 6447.52 916.233C6457.81 876.825 6471.93 846.434 6489.88 825.061C6507.82 803.687 6528.32 793 6551.37 793C6574.42 793 6594.92 803.687 6612.87 825.061C6630.82 846.434 6644.94 876.825 6655.23 916.233C6665.53 955.641 6670.67 1002.4 6670.67 1056.5ZM6639 1056.5C6639 1012.08 6635.09 974.593 6627.26 944.036C6619.51 913.478 6609 890.351 6595.72 874.654C6582.52 858.958 6567.74 851.11 6551.37 851.11C6535.01 851.11 6520.19 858.958 6506.9 874.654C6493.7 890.351 6483.19 913.478 6475.36 944.036C6467.62 974.593 6463.75 1012.08 6463.75 1056.5C6463.75 1100.92 6467.62 1138.4 6475.36 1168.96C6483.19 1199.52 6493.7 1222.65 6506.9 1238.34C6520.19 1254.04 6535.01 1261.89 6551.37 1261.89C6567.74 1261.89 6582.52 1254.04 6595.72 1238.34C6609 1222.65 6619.51 1199.52 6627.26 1168.96C6635.09 1138.4 6639 1100.92 6639 1056.5Z" fill="black"/>
<path d="M6879.32 1312.98L6805.41 800.013H6838.67L6895.15 1217.8H6897.79L6955.33 800.013H6992.28L7049.82 1217.8H7052.46L7108.94 800.013H7142.2L7068.29 1312.98H7034.51L6974.86 904.21H6972.75L6913.1 1312.98H6879.32Z" fill="black"/>
<path d="M7182.97 1312.98V800.013H7346.09V855.117H7215.7V1028.45H7337.64V1083.55H7215.7V1257.88H7348.2V1312.98H7182.97Z" fill="black"/>
<path d="M7405.08 1312.98V800.013H7499.57C7518.39 800.013 7533.92 806.192 7546.15 818.548C7558.38 830.738 7567.49 847.186 7573.47 867.892C7579.45 888.43 7582.44 911.223 7582.44 936.271C7582.44 958.312 7580.37 976.514 7576.24 990.874C7572.19 1005.23 7566.83 1016.59 7560.14 1024.94C7553.54 1033.29 7546.37 1039.47 7538.63 1043.47V1048.48C7546.9 1049.48 7555.21 1055 7563.57 1065.01C7571.93 1075.03 7578.92 1089.39 7584.55 1108.1C7590.18 1126.8 7593 1149.67 7593 1176.73C7593 1202.44 7589.92 1225.57 7583.76 1246.11C7577.6 1266.65 7567.88 1282.93 7554.6 1294.95C7541.31 1306.97 7524.02 1312.98 7502.73 1312.98H7405.08ZM7437.81 1257.88H7502.73C7524.11 1257.88 7539.29 1250.03 7548.26 1234.33C7557.32 1218.47 7561.86 1199.27 7561.86 1176.73C7561.86 1159.36 7559.52 1143.33 7554.86 1128.63C7550.2 1113.77 7543.56 1101.92 7534.93 1093.07C7526.31 1084.05 7516.11 1079.54 7504.32 1079.54H7437.81V1257.88ZM7437.81 1025.44H7498.51C7508.36 1025.44 7517.25 1021.77 7525.17 1014.42C7533.17 1007.07 7539.51 996.718 7544.17 983.36C7548.92 970.001 7551.3 954.305 7551.3 936.271C7551.3 913.728 7547.16 894.609 7538.89 878.912C7530.62 863.049 7517.51 855.117 7499.57 855.117H7437.81V1025.44Z" fill="black"/>
</g>
<defs>
<clipPath id="clip0_15_2">
<rect width="10616" height="4238" fill="white"/>
</clipPath>
</defs>
</svg>
