<svg width="10616" height="4238" viewBox="0 0 10616 4238" fill="none" xmlns="http://www.w3.org/2000/svg">
<path fill-rule="evenodd" clip-rule="evenodd" d="M10616 2103.63L10605.9 2103.88C10600.9 2104.01 10596 2104.13 10591 2104.25C10580.5 2083 10565.3 2053.05 10543.1 2009.44C10538.7 2000.72 10534 1991.45 10529 1981.6C10484.1 1893.07 10446.9 1820.67 10446.5 1820.8C10446.1 1820.93 10363.9 1870.8 10264.1 1931.87C10129.5 2013.87 10082.5 2043.2 10082.9 2044.8C10083.1 2045.64 10097.6 2073 10118.6 2112.11C9915.98 2114.23 9701.81 2115.18 9478.14 2115.52C9468.05 2096.75 9456.6 2075.51 9444.47 2053.07C9420.9 2009.41 9396.12 1963.47 9376.83 1927.7L9376.46 1927L9374.83 1923.98L9373.67 1921.83C9361.17 1898.65 9351.3 1880.35 9346.07 1870.67L9321.53 1825.33L9301 1825.2C9289.67 1825.2 9217.67 1825.6 9141 1826.27C9064.33 1826.8 8983.27 1827.73 8960.6 1828.4L8919.67 1829.33L8975.67 1873.07C9006.47 1897.2 9031.67 1917.47 9031.67 1918.13C9031.67 1918.93 9006.2 1968.27 8975 2027.87C8957.4 2061.63 8941.13 2093.33 8929.99 2115.47C8868.05 2115.4 8805.58 2115.32 8742.6 2115.24L8739.64 2115.24H8739.62H8739.44C6462.33 2112.34 3535.41 2108.61 1707.29 2578C1645.16 2466.89 1606.76 2416.61 1549.79 2370.53C1504.21 2333.43 1468.32 2314.05 1398.12 2288.17C1330.3 2263.23 1283.37 2252.82 1197.15 2243.73C1157.83 2239.6 1079.3 2235.19 1051.39 2235.58C1050.4 2235.59 1049.47 2235.6 1048.58 2235.61C1042.7 2235.66 1039.22 2235.69 1038.85 2236.77C1038.32 2238.34 1044.27 2242.12 1058.83 2251.35L1059.12 2251.54L1060.08 2252.15L1060.83 2252.62L1061.42 2252.99L1061.81 2253.24L1063.24 2254.15C1138.82 2302.31 1191.86 2356.52 1285 2479.96C1329.39 2539.18 1373.21 2591.65 1398.6 2616.4C1412.07 2629.58 1425.53 2641.63 1439.24 2652.7C1429.58 2655.62 1419.96 2658.56 1410.38 2661.52C1367.07 2628.87 1320.32 2584.59 1251.83 2512.57C1171.61 2428.27 1122.06 2382.25 1071.45 2344.79C1043.03 2323.74 1010.01 2302.5 998.802 2298.06L992.769 2295.67L986.414 2318.48C965.368 2393.18 958.044 2454.8 961.963 2520.05C968.201 2620.23 1004.57 2707.53 1069.88 2779.77C1022.03 2798.52 975.479 2817.81 930.29 2837.63C866.893 2782.74 787.709 2752.37 696.52 2749.28C666.633 2748.33 611.615 2751.06 608.492 2753.63C603.231 2758.08 626.316 2835.82 651.149 2896.83C659.789 2918.22 668.647 2938.5 679.399 2961.24C661.884 2970.97 644.656 2980.82 627.719 2990.77C610.334 2960.63 597.768 2934.58 584.544 2903.14C574.601 2879.87 561.613 2843.69 555.725 2822.85C549.538 2802.16 544.284 2786.47 543.692 2788.14C543.1 2789.81 539.383 2807.94 535.636 2828.24C518.905 2916.45 508.95 2995.88 505.867 3067.82C238.64 3249.96 62.0411 3466.79 0.357239 3724.9V2782C23.0366 2734.54 49.3438 2678.23 81.4423 2608.7C110.727 2545.42 144.809 2472.07 157.464 2446.05C170.12 2420.02 180.691 2397.8 180.945 2397.08C181.706 2394.94 226.422 2416.45 254.207 2432.35C403.998 2517.23 495.421 2612.23 561.614 2751.41C568.799 2766.5 574.713 2777.56 574.79 2775.95C574.795 2769.69 541.377 2675.34 528.776 2646.39C479.029 2532.24 417.078 2454.63 327.585 2394.43C298.36 2374.96 246.893 2346.15 226.852 2338.22C221.034 2335.91 216.031 2333.39 215.638 2332.41C215.068 2330.56 246.148 2272.62 270.531 2230.82L271.598 2228.98C278.225 2217.53 282.051 2210.92 287.433 2206.01C294.788 2199.31 305.047 2195.79 329.329 2187.46L331.619 2186.67C444.202 2147.67 547.802 2137.5 665.064 2153.97C740.886 2164.66 806.569 2183.85 943.305 2235.53C1003.55 2258.29 1051.94 2276.36 1051.16 2275.78C1042.87 2270.05 972.635 2229.72 946.667 2215.63C899.218 2190.04 765.829 2137.24 719.324 2125.63C598.326 2095.43 487.055 2088.4 375.616 2103.36L349.624 2106.69L353.922 2099.4C356.306 2095.45 367.65 2080.07 378.909 2064.92C527.857 1867.71 700.381 1744.08 912.619 1682.45C955.283 1670.21 956.183 1669.75 940.278 1670.26C877.604 1672.4 807.846 1683.45 752.011 1700.27C622.529 1739.13 503.589 1814.82 390.474 1929.57C372.014 1948.4 319.489 2007.91 302.377 2029.18L294.055 2039.5L302.651 2003.43C318.998 1933.67 330.896 1860.52 336.856 1793.74C341.567 1740.88 345.623 1664.9 343.539 1668.7C342.647 1670.53 337.01 1698.24 331.013 1730.44C316.617 1809.95 303.8 1873.21 290.802 1927.96C281.791 1966.58 275.551 1986.98 252.216 2052.88L224.53 2131.76L201.297 2164.76C162.675 2219.71 133.322 2264.44 38.3038 2414.12C24.5457 2435.79 11.9545 2455.58 0.357239 2473.75V0H10616V2103.63ZM0.357239 2473.75L0 2474.31V2782.75L0.357239 2782V2473.75ZM505.867 3067.82C544.604 3041.41 585.246 3015.74 627.719 2990.77C646.808 3023.86 671.706 3061.88 709.664 3117.37C799.239 3248.11 829.636 3312.14 849.113 3411.86C855.675 3444.68 861.362 3503.56 860.58 3530.74C860.507 3539.97 860.894 3547.2 861.494 3546.89C863.595 3545.82 867.976 3495.28 868.22 3471.7C868.775 3357.03 839.822 3268.8 739.967 3080.36C713.068 3029.44 694.393 2992.95 679.399 2961.24C757.477 2917.86 841.246 2876.69 930.29 2837.63C979.309 2880.07 1018.89 2937.17 1047.29 3007.64C1114.38 3174.13 1112.45 3411.3 1042.09 3662.76C1039.96 3670.39 1037.82 3678.15 1035.91 3685.09V3685.1L1035.9 3685.12C1032.91 3696 1030.46 3704.87 1029.46 3708.12C1022.81 3732.44 973.6 3870.04 959.062 3904.85C942.957 3943.39 908.976 4019.23 907.476 4020C906.96 4020.07 905.901 4008.49 904.826 3994.18C899.842 3923.6 881.607 3851.59 854.522 3794.86C826.959 3737.4 788.856 3686.11 711.089 3602.51C637.517 3523.02 605.845 3482.72 576.899 3431.24C522.836 3334.97 499.443 3217.67 505.867 3067.82ZM1069.88 2779.77C1177.04 2737.76 1290.74 2698.4 1410.38 2661.52C1426.39 2673.59 1441.93 2684.08 1457.93 2693.79C1503.46 2721.34 1576.52 2745.36 1623.01 2747.98L1635.06 2748.66L1622.78 2745.17C1547.84 2723.05 1491.67 2695.03 1439.24 2652.7C1525.64 2626.55 1615.07 2601.67 1707.29 2578C1710.57 2583.86 1713.91 2589.9 1717.33 2596.11C1775.59 2702.21 1812.23 2754.83 1856.34 2796.79C1898.85 2837.03 1945.12 2865.96 2005.88 2890.02C2027.43 2898.55 2042.61 2905.64 2041.11 2906.41C2027.95 2912.36 1915.89 2938.78 1862.89 2948.29C1675.89 2982.35 1516.63 2981.1 1358.1 2944.48C1323.87 2936.37 1217.46 2893.43 1188.29 2875.89C1141.8 2847.74 1102.28 2815.61 1069.88 2779.77ZM8929.99 2115.47C8921.46 2132.42 8915.94 2143.76 8915.13 2146.13C8904.87 2176.93 8908.07 2210 8924.33 2242.67C8934.6 2263.07 8947 2279.87 8965.67 2298.8C9012.73 2346.4 9058.6 2365.6 9145 2374C9163.27 2375.73 9222.87 2377.6 9241.67 2376.93L9255 2376.4L9330.2 2253.33L9405.27 2130.27L9415.53 2135.73C9421.13 2138.8 9446.33 2152.4 9471.67 2166.13C9497 2179.87 9517.8 2190.93 9518.07 2190.67C9518.25 2190.48 9501.98 2159.88 9478.14 2115.52C9301.04 2115.79 9117.98 2115.68 8929.99 2115.47ZM10118.6 2112.11C10127.5 2128.8 10137.6 2147.64 10148.3 2167.47C10176.7 2219.83 10207.3 2276.69 10225.2 2309.82L10225.5 2310.34L10236.5 2330.67L10259.5 2373.33L10292.6 2373.73C10430.9 2375.33 10547.4 2331.87 10592.7 2262C10608.9 2236.93 10617 2205.87 10615.3 2175.33C10615.2 2173.81 10615.1 2172.4 10615 2171.08L10615 2170.99C10614.9 2168.03 10614.7 2165.46 10614.5 2162.91C10613.3 2152.23 10609.6 2141.84 10591 2104.25C10442 2107.86 10284.2 2110.37 10118.6 2112.11ZM1654.49 1602.36C1716.43 1620.34 1770.46 1618.32 1833.05 1596.27C1848.24 1590.85 1856.96 1589.13 1855.47 1591.26C1786.92 1709.22 1716.97 1802.68 1636.5 1883.53C1594.83 1925.56 1566.21 1950.17 1527.6 1977.35C1445.35 2035.45 1370.68 2065.24 1293.96 2070.26C1147.11 2080.46 1024.18 1986.33 951.991 1808.57C939.466 1778.02 919.806 1719.06 920.989 1715.71C921.919 1713.09 975.166 1709.12 1000.45 1709.87C1049.78 1711.43 1083.64 1716.4 1169.75 1735.51C1301.62 1764.85 1343.48 1769.44 1401.74 1761.74C1428.11 1758.02 1449.06 1751.61 1474.44 1739.61C1495.1 1729.82 1527.95 1708.53 1529.56 1703.99C1529.9 1703.03 1519.6 1707.13 1506.35 1713.32C1453.79 1738.24 1391.54 1746.81 1333.44 1737.43C1298.58 1731.79 1276.01 1724.76 1191.64 1693.82C1144.46 1676.5 1095.21 1659.45 1082.2 1655.94C1033.28 1642.83 986.088 1638.03 941.867 1641.49C929.232 1642.48 918.829 1642.72 918.698 1642.39C918.128 1640.53 969.919 1594.88 1000.43 1570.48C1043.04 1536.17 1073.28 1516.01 1111.8 1495.33C1188.77 1454.2 1253.53 1440.64 1324.92 1450.66C1340.84 1452.88 1353.59 1457.11 1397.04 1474.58C1447.46 1494.54 1452.25 1496.98 1507.7 1529.82C1583.21 1574.68 1618.53 1592.2 1654.49 1602.36ZM620.124 1283.81C628 1256.71 638.022 1207.6 641.635 1179.35C650.118 1110.3 646.997 1042.09 629.759 921.474C614.842 815.115 610.904 761.014 614.221 705.158C618.372 637.926 635.442 566.825 662.779 501.421C671.766 480.205 681.014 459.637 683.183 455.595C685.482 451.877 686.666 448.535 686.019 448.279C683.649 447.341 582.717 529.074 546.964 560.656C306.745 773.46 150.235 1014.23 108.618 1235.14C71.5372 1431.44 126.158 1590.82 263.288 1686.48C275.681 1695.2 289.797 1704.6 294.715 1707.36L303.605 1712.79L311.904 1684.49C335.672 1604.88 349.318 1515 360.923 1364.97C374.341 1187.61 386.209 1116.62 416.055 1032.34C424.256 1009.18 435.656 981.842 443.091 967.09C456.347 940.758 485.13 894.167 491.676 888.863C494.8 886.288 494.715 886.527 492.416 890.245C467.762 930.032 435.83 1010.5 422.409 1066.44C403.918 1144.32 398.826 1205.2 400.784 1330.11C402.898 1459.44 401.509 1507.08 393.301 1571.89C388.63 1610.06 376.697 1670.12 369.772 1691.07C359.681 1721.64 361.612 1721.05 391.653 1683.39C509.257 1535.85 586.052 1401.54 620.124 1283.81ZM9775 1267.47C9681.93 1268.13 9594.6 1269.07 9581 1269.47L9556.33 1270.27L9567.4 1274C9641.27 1299.07 9703.4 1356.67 9757.93 1450.67C9776.47 1482.67 9914.6 1737.87 9913.8 1739.07C9913.53 1739.6 9889.4 1755.47 9860.47 1774.13L9807.67 1808L9846.07 1808.8C9867.13 1809.33 9944.6 1810 10018.3 1810.53C10092.1 1810.93 10162.2 1811.73 10174.3 1812.13L10196.3 1812.93L10285 1666.53C10333.8 1586 10380.5 1509.07 10388.7 1495.47C10396.9 1482 10403.5 1470.8 10403.4 1470.67C10403.1 1470.4 10375.7 1484.53 10342.3 1502C10309 1519.47 10281.5 1533.73 10281.5 1533.6C10281 1532.93 10204.7 1392.53 10196.2 1376.4C10184.3 1354 10177.1 1343.87 10162.5 1328.4C10135.3 1299.73 10100.3 1279.6 10059.7 1269.2C10048.3 1266.27 9999.67 1266 9775 1267.47ZM9401.4 1321.6C9423.27 1301.87 9453 1287.73 9480.33 1284.27C9482.6 1284 9489.27 1283.6 9495.4 1283.47C9581.4 1282 9682.47 1369.2 9755 1507.73L9765 1526.8L9667.8 1685.2C9614.2 1772.4 9569.93 1844.27 9569.27 1844.93C9568.6 1845.6 9492.47 1801.2 9385.53 1738L9379.78 1734.59L9379.18 1734.23L9379.07 1734.16L9378.18 1733.64L9378.03 1733.54C9281.05 1675.97 9202.45 1629.32 9201.93 1628.67C9200.2 1627.07 9394.6 1327.73 9401.4 1321.6ZM9901.93 2448.27L9806.2 2620.93L9837.93 2679.07C9855.53 2711.2 9898.6 2790 9933.67 2854.27L9997.67 2971.2L9998.47 2961.6C9999 2956.4 10000.1 2928.27 10000.9 2899.33C10001.7 2870.4 10002.7 2843.33 10003.1 2839.33L10003.8 2832H10106.1C10199 2832 10209.4 2831.73 10220.1 2829.6C10246.3 2824.27 10274.1 2812.67 10297.7 2797.07C10315.5 2785.2 10340.3 2760.27 10349.8 2744.67C10353.7 2738.4 10406.3 2640.27 10467 2526.67C10527.7 2412.93 10578.6 2317.87 10580.1 2315.33C10582.6 2311.07 10582.2 2311.2 10574.9 2318C10529.8 2359.33 10478.5 2384.13 10413 2396L10409.1 2396.71C10401.9 2398.03 10396 2399.11 10390 2399.99C10363.8 2403.89 10337 2403.95 10191.3 2404.25L10182.9 2404.27L10005.5 2404.8L10002.5 2346.4C10000.7 2314.27 9999 2285.2 9998.47 2281.73L9997.67 2275.47L9901.93 2448.27ZM8966.87 2363.6C8950.47 2333.33 8937 2308.13 8937 2307.73C8937 2307.33 8942.2 2312.13 8948.47 2318.53C8991.53 2361.73 9048.07 2388.8 9115.67 2398.8C9117.27 2399.03 9118.61 2399.24 9119.95 2399.43C9132.37 2401.19 9145.04 2401.21 9378.33 2402.53C9451.27 2402.93 9548.33 2403.73 9594.07 2404.13L9677 2405.07V2619.6V2834.13L9518.07 2833.6C9350.6 2833.07 9345.93 2832.8 9311.67 2826.67C9259.27 2817.07 9220.47 2799.07 9192.87 2771.47C9183.4 2761.87 9180.07 2757.2 9172.07 2742.67C9166.87 2733.07 9125.27 2656.27 9079.67 2572C9036.63 2492.35 8988.96 2404.38 8969.95 2369.29L8966.87 2363.6Z" fill="#90C495"/>
</svg>
