<svg width="10616" height="4238" viewBox="0 0 10616 4238" fill="none" xmlns="http://www.w3.org/2000/svg">
<g clip-path="url(#clip0_15_2)">
<path fill-rule="evenodd" clip-rule="evenodd" d="M9795.43 2001.53C9970.93 2000.66 10139.4 1999.2 10299.6 1996.84C10243 2031.42 10222.3 2044.51 10222.5 2045.35C10222.7 2046.11 10241.2 2080.75 10263.6 2122.33C10281.7 2155.75 10301.3 2192.09 10312.4 2212.71L10318.9 2224.75L10333.4 2251.52L10354.1 2251.77C10440.9 2252.78 10514 2225.5 10542.5 2181.65C10552.6 2165.92 10557.7 2146.43 10556.6 2127.27C10556.5 2126.3 10556.5 2125.4 10556.5 2124.55C10556.4 2122.69 10556.3 2121.07 10556.1 2119.47C10555 2108.99 10549.8 2098.94 10511.4 2023.2L10502.5 2005.69C10500.3 2001.52 10498.3 1997.41 10496.2 1993.37C10536.9 1992.53 10577 1991.62 10616.4 1990.62V-113H0.357239V2360.75C-73.2738 2476.11 -106.835 2526.26 -144.554 2578.83C-237.972 2708.73 -332.847 2810.83 -422.304 2877.5C-458.044 2904.19 -474.876 2914.95 -525.651 2943.85C-580.195 2975.07 -593.102 2987.93 -587.962 3006.03C-584.841 3017.33 -573.442 3025.39 -549.877 3033.08C-512.314 3044.96 -458.125 3047.35 -399.87 3039.65C-336.16 3031.11 -316.714 3033.09 -268.491 3051.64C-239.531 3062.83 -235.052 3064.06 -229.735 3061.54C-218.672 3056.66 -160.118 2970.4 -117.356 2896.13C-80.5341 2832.43 -48.5103 2771.27 0.357239 2669V3611.9C62.0411 3353.79 238.64 3136.96 505.867 2954.82C499.443 3104.67 522.836 3221.97 576.899 3318.24C605.845 3369.72 637.517 3410.02 711.089 3489.51C788.856 3573.11 826.959 3624.4 854.522 3681.86C881.607 3738.59 899.842 3810.6 904.826 3881.18C905.901 3895.49 906.96 3907.07 907.476 3907C908.976 3906.23 942.957 3830.39 959.062 3791.85C973.6 3757.04 1022.81 3619.44 1029.46 3595.12C1030.46 3591.87 1032.91 3583 1035.9 3572.12L1035.91 3572.1V3572.09C1037.82 3565.15 1039.96 3557.39 1042.09 3549.76C1112.45 3298.3 1114.38 3061.13 1047.29 2894.64C1018.89 2824.17 979.309 2767.07 930.29 2724.63C975.479 2704.81 1022.03 2685.52 1069.88 2666.77C1102.28 2702.61 1141.8 2734.74 1188.29 2762.89C1217.46 2780.43 1323.87 2823.37 1358.1 2831.48C1516.63 2868.1 1675.89 2869.35 1862.89 2835.29C1915.89 2825.78 2027.95 2799.36 2041.11 2793.41C2042.61 2792.64 2027.43 2785.55 2005.88 2777.02C1945.12 2752.96 1898.85 2724.03 1856.34 2683.79C1812.23 2641.83 1775.59 2589.21 1717.33 2483.11C1713.91 2476.9 1710.57 2470.86 1707.29 2465C3535.41 1995.61 6462.33 1999.34 8739.44 2002.24H8739.62H8739.64H8739.69C9018.67 2002.6 9287.88 2002.94 9544.13 2002.4C9539.11 2012.07 9533.36 2023.08 9527.27 2034.73C9507.77 2072.13 9490.87 2105.51 9489.7 2108.94C9483.25 2128.27 9485.26 2149.02 9495.47 2169.52C9501.91 2182.32 9509.7 2192.87 9521.41 2204.75C9550.95 2234.62 9579.73 2246.67 9633.95 2251.94C9645.41 2253.03 9682.81 2254.2 9694.61 2253.78L9702.98 2253.44L9750.17 2176.22L9797.28 2098.99L9803.72 2102.42C9807.23 2104.34 9823.05 2112.88 9838.94 2121.49C9854.84 2130.11 9867.89 2137.06 9868.06 2136.89C9868.23 2136.72 9847.48 2097.9 9821.87 2050.54C9813.03 2034.16 9803.92 2017.27 9795.43 2001.53ZM9795.43 2001.53L9779.6 1972.18C9770.74 1955.75 9763.7 1942.7 9760.12 1936.08L9744.73 1907.63L9731.84 1907.55C9724.73 1907.55 9679.55 1907.8 9631.44 1908.21C9583.33 1908.55 9532.45 1909.14 9518.23 1909.55L9492.54 1910.14L9527.68 1937.58C9547.01 1952.73 9562.83 1965.45 9562.83 1965.86C9562.83 1966.21 9555.25 1981 9544.13 2002.4C9629.37 2002.22 9713.18 2001.94 9795.43 2001.53ZM1439.24 2539.7C1425.53 2528.63 1412.07 2516.58 1398.6 2503.4C1373.21 2478.65 1329.39 2426.18 1285 2366.96C1191.86 2243.52 1138.82 2189.31 1063.24 2141.15L1061.81 2140.24C1061.22 2139.86 1060.64 2139.5 1060.08 2139.15L1059.12 2138.54L1058.83 2138.35C1044.27 2129.12 1038.32 2125.34 1038.85 2123.77C1039.22 2122.69 1042.7 2122.66 1048.58 2122.61L1049.98 2122.59L1051.39 2122.58C1079.3 2122.19 1157.83 2126.6 1197.15 2130.73C1283.37 2139.82 1330.3 2150.23 1398.12 2175.17C1468.32 2201.05 1504.21 2220.43 1549.79 2257.53C1606.76 2303.61 1645.16 2353.89 1707.29 2465C1615.07 2488.67 1525.64 2513.55 1439.24 2539.7ZM1410.38 2548.52C1419.96 2545.56 1429.58 2542.62 1439.24 2539.7C1491.67 2582.03 1547.84 2610.05 1622.78 2632.17L1635.06 2635.66L1623.01 2634.98C1576.52 2632.36 1503.46 2608.34 1457.93 2580.79C1441.93 2571.08 1426.39 2560.59 1410.38 2548.52ZM1410.38 2548.52C1367.07 2515.87 1320.32 2471.59 1251.83 2399.57C1171.61 2315.27 1122.06 2269.25 1071.45 2231.79C1043.03 2210.74 1010.01 2189.5 998.802 2185.06L992.769 2182.67L986.414 2205.48C965.368 2280.18 958.044 2341.8 961.963 2407.05C968.201 2507.23 1004.57 2594.53 1069.88 2666.77C1177.04 2624.76 1290.74 2585.4 1410.38 2548.52ZM679.399 2848.24C668.647 2825.5 659.789 2805.22 651.149 2783.83C626.316 2722.82 603.231 2645.08 608.492 2640.63C611.615 2638.06 666.633 2635.33 696.52 2636.28C787.709 2639.37 866.893 2669.74 930.29 2724.63C841.246 2763.69 757.477 2804.86 679.399 2848.24ZM627.719 2877.77C644.656 2867.82 661.884 2857.97 679.399 2848.24C694.393 2879.95 713.068 2916.44 739.967 2967.36C839.822 3155.8 868.775 3244.03 868.22 3358.7C867.976 3382.28 863.595 3432.82 861.494 3433.89C860.894 3434.2 860.507 3426.97 860.58 3417.74C861.362 3390.56 855.675 3331.68 849.113 3298.86C829.636 3199.14 799.239 3135.11 709.664 3004.37C671.706 2948.88 646.808 2910.86 627.719 2877.77ZM627.719 2877.77C610.334 2847.63 597.768 2821.58 584.544 2790.14C574.601 2766.87 561.613 2730.69 555.725 2709.85C549.538 2689.16 544.284 2673.47 543.692 2675.14C543.1 2676.81 539.383 2694.94 535.636 2715.24C518.905 2803.45 508.95 2882.88 505.867 2954.82C544.604 2928.41 585.246 2902.74 627.719 2877.77ZM0.357239 2669C23.0366 2621.54 49.3437 2565.23 81.4423 2495.7C110.727 2432.42 144.809 2359.07 157.464 2333.05C170.12 2307.02 180.691 2284.8 180.945 2284.08C181.706 2281.94 226.422 2303.45 254.207 2319.35C403.998 2404.23 495.421 2499.23 561.614 2638.41C568.799 2653.5 574.713 2664.56 574.79 2662.95C574.795 2656.69 541.377 2562.34 528.776 2533.39C479.029 2419.24 417.078 2341.63 327.585 2281.43C298.36 2261.96 246.893 2233.15 226.852 2225.22C221.034 2222.91 216.031 2220.39 215.638 2219.41C215.068 2217.56 246.148 2159.62 270.531 2117.82L271.598 2115.98C278.225 2104.53 282.051 2097.92 287.433 2093.01C294.788 2086.31 305.047 2082.79 329.329 2074.46L331.619 2073.67C444.202 2034.67 547.802 2024.5 665.064 2040.97C740.886 2051.66 806.569 2070.85 943.305 2122.53C1003.55 2145.29 1051.94 2163.36 1051.16 2162.78C1042.87 2157.05 972.635 2116.72 946.667 2102.63C899.218 2077.04 765.829 2024.24 719.324 2012.63C598.326 1982.43 487.055 1975.4 375.616 1990.36L349.624 1993.69L353.922 1986.4C356.306 1982.45 367.65 1967.07 378.909 1951.92C527.857 1754.71 700.381 1631.08 912.619 1569.45C955.283 1557.21 956.183 1556.75 940.278 1557.26C877.604 1559.4 807.846 1570.45 752.011 1587.27C622.529 1626.13 503.589 1701.82 390.474 1816.57C372.014 1835.4 319.489 1894.91 302.377 1916.18L294.055 1926.5L302.651 1890.43C318.998 1820.67 330.896 1747.52 336.856 1680.74C341.567 1627.88 345.623 1551.9 343.539 1555.7C342.647 1557.53 337.01 1585.24 331.013 1617.44C316.617 1696.95 303.8 1760.21 290.802 1814.96C281.791 1853.58 275.551 1873.98 252.216 1939.88L224.53 2018.76L201.297 2051.76C162.675 2106.71 133.322 2151.44 38.3038 2301.12C24.5457 2322.79 11.9545 2342.58 0.357239 2360.75V2669ZM10496.2 1993.37C10470.9 1943.57 10450.9 1904.71 10450.7 1904.78C10450.4 1904.87 10398.9 1936.16 10336.2 1974.48C10322.6 1982.77 10310.4 1990.2 10299.6 1996.84C10366.6 1995.85 10432.2 1994.7 10496.2 1993.37ZM1833.05 1483.27C1770.46 1505.32 1716.43 1507.34 1654.49 1489.36C1618.53 1479.2 1583.21 1461.68 1507.7 1416.82C1452.25 1383.98 1447.46 1381.54 1397.04 1361.58C1353.59 1344.11 1340.84 1339.88 1324.92 1337.66C1253.53 1327.64 1188.77 1341.2 1111.8 1382.33C1073.28 1403.01 1043.04 1423.17 1000.43 1457.48C969.919 1481.88 918.128 1527.53 918.698 1529.39C918.829 1529.72 929.232 1529.48 941.867 1528.49C986.088 1525.03 1033.28 1529.83 1082.2 1542.94C1095.21 1546.45 1144.46 1563.5 1191.64 1580.82C1276.01 1611.76 1298.58 1618.79 1333.44 1624.43C1391.54 1633.81 1453.79 1625.24 1506.35 1600.32C1519.6 1594.13 1529.9 1590.03 1529.56 1590.99C1527.95 1595.53 1495.1 1616.82 1474.44 1626.61C1449.06 1638.61 1428.11 1645.02 1401.74 1648.74C1343.48 1656.44 1301.62 1651.85 1169.75 1622.51C1083.64 1603.4 1049.78 1598.43 1000.45 1596.87C975.166 1596.12 921.919 1600.09 920.989 1602.71C919.806 1606.06 939.466 1665.02 951.991 1695.57C1024.18 1873.33 1147.11 1967.46 1293.96 1957.26C1370.68 1952.24 1445.35 1922.45 1527.6 1864.35C1566.21 1837.17 1594.83 1812.56 1636.5 1770.53C1716.97 1689.68 1786.92 1596.22 1855.47 1478.26C1856.96 1476.13 1848.24 1477.85 1833.05 1483.27ZM641.635 1066.35C638.022 1094.6 628 1143.71 620.124 1170.81C586.052 1288.54 509.257 1422.85 391.653 1570.39C361.612 1608.05 359.681 1608.64 369.772 1578.07C376.697 1557.12 388.63 1497.06 393.301 1458.89C401.509 1394.08 402.898 1346.44 400.784 1217.11C398.826 1092.2 403.918 1031.32 422.409 953.44C435.83 897.5 467.762 817.032 492.416 777.245C494.715 773.527 494.8 773.288 491.676 775.863C485.13 781.167 456.347 827.758 443.091 854.09C435.656 868.842 424.256 896.18 416.055 919.34C386.209 1003.62 374.341 1074.61 360.923 1251.97C349.318 1402 335.672 1491.88 311.904 1571.49L303.605 1599.79L294.715 1594.36C289.797 1591.6 275.681 1582.2 263.288 1573.48C126.158 1477.82 71.5372 1318.44 108.618 1122.14C150.235 901.23 306.745 660.46 546.964 447.656C582.717 416.074 683.649 334.341 686.019 335.279C686.666 335.535 685.482 338.877 683.183 342.595C681.014 346.637 671.766 367.205 662.779 388.421C635.442 453.825 618.372 524.926 614.221 592.158C610.904 648.014 614.842 702.115 629.759 808.474C646.997 929.09 650.118 997.3 641.635 1066.35ZM10029.3 1557.55C9970.89 1557.96 9916.09 1558.55 9907.56 1558.8L9892.08 1559.3L9899.02 1561.65C9945.37 1577.38 9984.37 1613.52 10018.6 1672.51C10030.2 1692.59 10116.9 1852.74 10116.4 1853.49C10116.2 1853.83 10101.1 1863.78 10082.9 1875.5L10049.8 1896.75L10073.9 1897.25C10087.1 1897.59 10135.7 1898.01 10182 1898.34C10228.3 1898.59 10272.3 1899.09 10279.9 1899.35L10293.7 1899.85L10349.3 1807.98C10380 1757.44 10409.3 1709.16 10414.4 1700.62C10419.5 1692.17 10423.7 1685.15 10423.6 1685.06C10423.5 1684.89 10406.2 1693.76 10385.3 1704.72C10364.4 1715.69 10347.2 1724.64 10347.2 1724.55C10346.8 1724.14 10299 1636.03 10293.6 1625.91C10286.2 1611.85 10281.7 1605.49 10272.4 1595.78C10255.4 1577.79 10233.5 1565.16 10207.9 1558.63C10200.8 1556.79 10170.3 1556.63 10029.3 1557.55ZM9794.85 1591.52C9808.57 1579.13 9827.23 1570.26 9844.38 1568.09C9845.81 1567.92 9849.99 1567.67 9853.84 1567.59C9907.81 1566.67 9971.23 1621.39 10016.7 1708.32L10023 1720.29L9962.03 1819.69C9928.39 1874.41 9900.61 1919.51 9900.19 1919.93C9899.77 1920.35 9852 1892.48 9784.89 1852.82L9781.35 1850.72C9719.96 1814.28 9670 1784.62 9669.68 1784.21C9668.59 1783.21 9790.58 1595.37 9794.85 1591.52ZM10109 2298.54L10048.9 2406.9L10068.8 2443.38C10079.8 2463.54 10106.9 2512.99 10128.9 2553.32L10169 2626.71L10169.5 2620.68C10169.9 2617.42 10170.5 2599.76 10171 2581.61C10171.5 2563.45 10172.2 2546.46 10172.5 2543.95L10172.9 2539.35H10237.1C10295.4 2539.35 10301.9 2539.18 10308.6 2537.85C10325.1 2534.5 10342.5 2527.22 10357.3 2517.43C10368.5 2509.98 10384.1 2494.34 10390 2484.55C10392.4 2480.61 10425.5 2419.03 10463.6 2347.74C10501.6 2276.37 10533.6 2216.71 10534.5 2215.12C10536.1 2212.45 10535.8 2212.53 10531.2 2216.8C10503 2242.73 10470.8 2258.3 10429.7 2265.74C10424 2266.78 10419.6 2267.6 10415.3 2268.25C10398.8 2270.7 10382 2270.73 10290.6 2270.92L10285.2 2270.93L10174 2271.27L10172 2234.62C10171 2214.45 10169.9 2196.21 10169.5 2194.04L10169 2190.11L10109 2298.54ZM9522.16 2245.41C9511.87 2226.42 9503.42 2210.6 9503.42 2210.35C9503.42 2210.1 9506.68 2213.11 9510.62 2217.13C9537.64 2244.24 9573.12 2261.23 9615.54 2267.5C9616.55 2267.65 9617.39 2267.78 9618.23 2267.9C9626.02 2269 9633.98 2269.01 9780.37 2269.84C9826.14 2270.1 9887.06 2270.6 9915.75 2270.85L9967.8 2271.43V2406.06V2540.69L9868.06 2540.36C9762.97 2540.02 9760.04 2539.85 9738.54 2536C9705.66 2529.98 9681.31 2518.68 9663.99 2501.36C9658.05 2495.34 9655.95 2492.41 9650.93 2483.29C9647.67 2477.27 9621.56 2429.07 9592.95 2376.19C9564.33 2323.23 9532.45 2264.41 9522.16 2245.41Z" fill="#90C495"/>
</g>
<defs>
<clipPath id="clip0_15_2">
<rect width="10616" height="4238" fill="white"/>
</clipPath>
</defs>
</svg>
