<svg width="10616" height="4238" viewBox="0 0 10616 4238" fill="none" xmlns="http://www.w3.org/2000/svg">
<g clip-path="url(#clip0_15_2)">
<mask id="mask0_15_2" style="mask-type:luminance" maskUnits="userSpaceOnUse" x="0" y="0" width="10616" height="4238">
<path d="M10616 0H0V4238H10616V0Z" fill="white"/>
</mask>
<g mask="url(#mask0_15_2)">
<path fill-rule="evenodd" clip-rule="evenodd" d="M8739.64 2115.24C9444.86 2116.14 10087.7 2116.96 10616.4 2103.62V0H0.357239V2473.75C-73.2738 2589.11 -106.835 2639.26 -144.554 2691.83C-237.972 2821.73 -332.847 2923.83 -422.304 2990.5C-458.044 3017.19 -474.876 3027.95 -525.651 3056.85C-580.195 3088.07 -593.102 3100.93 -587.962 3119.03C-584.841 3130.33 -573.442 3138.39 -549.877 3146.08C-512.314 3157.96 -458.125 3160.35 -399.87 3152.65C-336.16 3144.11 -316.714 3146.09 -268.491 3164.64C-239.531 3175.83 -235.052 3177.06 -229.735 3174.54C-218.672 3169.66 -160.118 3083.4 -117.356 3009.13C-80.5341 2945.43 -48.5102 2884.27 0.357239 2782V3724.9C62.0411 3466.79 238.64 3249.96 505.867 3067.82C499.443 3217.67 522.836 3334.97 576.899 3431.24C605.845 3482.72 637.517 3523.02 711.089 3602.51C788.856 3686.11 826.959 3737.4 854.522 3794.86C881.607 3851.59 899.842 3923.6 904.826 3994.18C905.901 4008.49 906.96 4020.07 907.476 4020C908.976 4019.23 942.957 3943.39 959.062 3904.85C973.6 3870.04 1022.81 3732.44 1029.46 3708.12C1030.46 3704.87 1032.91 3696 1035.9 3685.12L1035.91 3685.1V3685.09C1037.82 3678.15 1039.96 3670.39 1042.09 3662.76C1112.45 3411.3 1114.38 3174.13 1047.29 3007.64C1018.89 2937.17 979.309 2880.07 930.29 2837.63C975.479 2817.81 1022.03 2798.52 1069.88 2779.77C1102.28 2815.61 1141.8 2847.74 1188.29 2875.89C1217.46 2893.43 1323.87 2936.37 1358.1 2944.48C1516.63 2981.1 1675.89 2982.35 1862.89 2948.29C1915.89 2938.78 2027.95 2912.36 2041.11 2906.41C2042.61 2905.64 2027.43 2898.55 2005.88 2890.02C1945.12 2865.96 1898.85 2837.03 1856.34 2796.79C1812.23 2754.83 1775.59 2702.21 1717.33 2596.11C1713.91 2589.9 1710.57 2583.86 1707.29 2578C3535.46 2108.6 6462.48 2112.34 8739.62 2115.24H8739.64ZM1439.24 2652.7C1425.53 2641.63 1412.07 2629.58 1398.6 2616.4C1373.21 2591.65 1329.39 2539.18 1285 2479.96C1191.86 2356.52 1138.82 2302.31 1063.24 2254.15L1061.81 2253.24C1060.88 2252.65 1059.99 2252.09 1059.12 2251.54L1058.83 2251.35C1044.27 2242.12 1038.32 2238.34 1038.85 2236.77C1039.22 2235.69 1042.7 2235.66 1048.58 2235.61C1049.47 2235.6 1050.4 2235.59 1051.39 2235.58C1079.3 2235.19 1157.83 2239.6 1197.15 2243.73C1283.37 2252.82 1330.3 2263.23 1398.12 2288.17C1468.32 2314.05 1504.21 2333.43 1549.79 2370.53C1606.76 2416.61 1645.16 2466.89 1707.29 2578C1615.07 2601.67 1525.64 2626.55 1439.24 2652.7ZM1410.38 2661.52C1419.96 2658.56 1429.58 2655.62 1439.24 2652.7C1491.67 2695.03 1547.84 2723.05 1622.78 2745.17L1635.06 2748.66L1623.01 2747.98C1576.52 2745.36 1503.46 2721.34 1457.93 2693.79C1441.93 2684.08 1426.39 2673.59 1410.38 2661.52ZM1410.38 2661.52C1367.07 2628.87 1320.32 2584.59 1251.83 2512.57C1171.61 2428.27 1122.06 2382.25 1071.45 2344.79C1043.03 2323.74 1010.01 2302.5 998.802 2298.06L992.769 2295.67L986.414 2318.48C965.368 2393.18 958.044 2454.8 961.963 2520.05C968.201 2620.23 1004.57 2707.53 1069.88 2779.77C1177.04 2737.76 1290.74 2698.4 1410.38 2661.52ZM679.399 2961.24C668.647 2938.5 659.789 2918.22 651.149 2896.83C626.316 2835.82 603.231 2758.08 608.492 2753.63C611.615 2751.06 666.633 2748.33 696.52 2749.28C787.709 2752.37 866.893 2782.74 930.29 2837.63C841.246 2876.69 757.477 2917.86 679.399 2961.24ZM627.719 2990.77C644.656 2980.82 661.884 2970.97 679.399 2961.24C694.393 2992.95 713.068 3029.44 739.967 3080.36C839.822 3268.8 868.775 3357.03 868.22 3471.7C867.976 3495.28 863.595 3545.82 861.494 3546.89C860.894 3547.2 860.507 3539.97 860.58 3530.74C861.362 3503.56 855.675 3444.68 849.113 3411.86C829.636 3312.14 799.239 3248.11 709.664 3117.37C671.706 3061.88 646.808 3023.86 627.719 2990.77ZM627.719 2990.77C610.334 2960.63 597.768 2934.58 584.544 2903.14C574.601 2879.87 561.613 2843.69 555.725 2822.85C549.538 2802.16 544.284 2786.47 543.692 2788.14C543.1 2789.81 539.383 2807.94 535.636 2828.24C518.905 2916.45 508.95 2995.88 505.867 3067.82C544.604 3041.41 585.246 3015.74 627.719 2990.77ZM0.357239 2782C23.0366 2734.54 49.3438 2678.23 81.4423 2608.7C110.727 2545.42 144.809 2472.07 157.464 2446.05C170.12 2420.02 180.691 2397.8 180.945 2397.08C181.706 2394.94 226.422 2416.45 254.207 2432.35C403.998 2517.23 495.421 2612.23 561.614 2751.41C568.799 2766.5 574.713 2777.56 574.79 2775.95C574.795 2769.69 541.377 2675.34 528.776 2646.39C479.029 2532.24 417.078 2454.63 327.585 2394.43C298.36 2374.96 246.893 2346.15 226.852 2338.22C221.034 2335.91 216.031 2333.39 215.638 2332.41C215.068 2330.56 246.148 2272.62 270.531 2230.82L271.598 2228.98C278.225 2217.53 282.051 2210.92 287.433 2206.01C294.788 2199.31 305.047 2195.79 329.329 2187.46L331.619 2186.67C444.202 2147.67 547.802 2137.5 665.064 2153.97C740.886 2164.66 806.569 2183.85 943.305 2235.53C1003.55 2258.29 1051.94 2276.36 1051.16 2275.78C1042.87 2270.05 972.635 2229.72 946.667 2215.63C899.218 2190.04 765.829 2137.24 719.324 2125.63C598.326 2095.43 487.055 2088.4 375.616 2103.36L349.624 2106.69L353.922 2099.4C356.306 2095.45 367.65 2080.07 378.909 2064.92C527.857 1867.71 700.381 1744.08 912.619 1682.45C955.283 1670.21 956.183 1669.75 940.278 1670.26C877.604 1672.4 807.846 1683.45 752.011 1700.27C622.529 1739.13 503.589 1814.82 390.474 1929.57C372.014 1948.4 319.489 2007.91 302.377 2029.18L294.055 2039.5L302.651 2003.43C318.998 1933.67 330.896 1860.52 336.856 1793.74C341.567 1740.88 345.623 1664.9 343.539 1668.7C342.647 1670.53 337.01 1698.24 331.013 1730.44C316.617 1809.95 303.8 1873.21 290.802 1927.96C281.791 1966.58 275.551 1986.98 252.216 2052.88L224.53 2131.76L201.297 2164.76C162.675 2219.71 133.322 2264.44 38.3038 2414.12C24.5456 2435.79 11.9545 2455.58 0.357239 2473.75V2782ZM1833.05 1596.27C1770.46 1618.32 1716.43 1620.34 1654.49 1602.36C1618.53 1592.2 1583.21 1574.68 1507.7 1529.82C1452.25 1496.98 1447.46 1494.54 1397.04 1474.58C1353.59 1457.11 1340.84 1452.88 1324.92 1450.66C1253.53 1440.64 1188.77 1454.2 1111.8 1495.33C1073.28 1516.01 1043.04 1536.17 1000.43 1570.48C969.919 1594.88 918.128 1640.53 918.698 1642.39C918.829 1642.72 929.232 1642.48 941.867 1641.49C986.088 1638.03 1033.28 1642.83 1082.2 1655.94C1095.21 1659.45 1144.46 1676.5 1191.64 1693.82C1276.01 1724.76 1298.58 1731.79 1333.44 1737.43C1391.54 1746.81 1453.79 1738.24 1506.35 1713.32C1519.6 1707.13 1529.9 1703.03 1529.56 1703.99C1527.95 1708.53 1495.1 1729.82 1474.44 1739.61C1449.06 1751.61 1428.11 1758.02 1401.74 1761.74C1343.48 1769.44 1301.62 1764.85 1169.75 1735.51C1083.64 1716.4 1049.78 1711.43 1000.45 1709.87C975.166 1709.12 921.919 1713.09 920.989 1715.71C919.806 1719.06 939.466 1778.02 951.991 1808.57C1024.18 1986.33 1147.11 2080.46 1293.96 2070.26C1370.68 2065.24 1445.35 2035.45 1527.6 1977.35C1566.21 1950.17 1594.83 1925.56 1636.5 1883.53C1716.97 1802.68 1786.92 1709.22 1855.47 1591.26C1856.96 1589.13 1848.24 1590.85 1833.05 1596.27ZM641.635 1179.35C638.022 1207.6 628 1256.71 620.124 1283.81C586.052 1401.54 509.257 1535.85 391.653 1683.39C361.612 1721.05 359.681 1721.64 369.772 1691.07C376.697 1670.12 388.63 1610.06 393.301 1571.89C401.509 1507.08 402.898 1459.44 400.784 1330.11C398.826 1205.2 403.918 1144.32 422.409 1066.44C435.83 1010.5 467.762 930.032 492.416 890.245C494.715 886.527 494.8 886.288 491.676 888.863C485.13 894.167 456.347 940.758 443.091 967.09C435.656 981.842 424.256 1009.18 416.055 1032.34C386.209 1116.62 374.341 1187.61 360.923 1364.97C349.318 1515 335.672 1604.88 311.904 1684.49L303.605 1712.79L294.715 1707.36C289.797 1704.6 275.681 1695.2 263.288 1686.48C126.158 1590.82 71.5373 1431.44 108.618 1235.14C150.235 1014.23 306.745 773.46 546.964 560.656C582.717 529.074 683.649 447.341 686.019 448.279C686.666 448.535 685.482 451.877 683.183 455.595C681.014 459.637 671.766 480.205 662.779 501.421C635.442 566.825 618.372 637.926 614.221 705.158C610.904 761.014 614.842 815.115 629.759 921.474C646.997 1042.09 650.118 1110.3 641.635 1179.35Z" fill="#90C495"/>
</g>
</g>
<defs>
<clipPath id="clip0_15_2">
<rect width="10616" height="4238" fill="white"/>
</clipPath>
</defs>
</svg>
