<?xml version="1.0" standalone="no"?>
<!DOCTYPE svg PUBLIC "-//W3C//DTD SVG 20010904//EN"
 "http://www.w3.org/TR/2001/REC-SVG-20010904/DTD/svg10.dtd">
<svg version="1.0" xmlns="http://www.w3.org/2000/svg"
 width="850.000000pt" height="1280.000000pt" viewBox="0 0 850.000000 1280.000000"
 preserveAspectRatio="xMidYMid meet">
<metadata>
Created by potrace 1.15, written by Peter Selinger 2001-2017
</metadata>
<g transform="translate(0.000000,1280.000000) scale(0.100000,-0.100000)"
fill="#f57400" stroke="none">
<path d="M5150 12762 c-30 -15 -66 -35 -80 -44 -14 -10 -97 -34 -185 -54
l-160 -36 -370 -7 -370 -7 -180 -73 c-99 -40 -228 -96 -286 -126 -74 -37 -147
-64 -245 -90 -291 -76 -506 -143 -687 -211 -49 -19 -92 -34 -95 -34 -4 0 -18
19 -31 43 -13 23 -50 83 -81 132 -57 89 -58 91 -50 140 5 28 9 63 9 80 l1 29
-39 -38 -39 -38 -51 27 c-28 16 -51 32 -51 37 0 5 -4 7 -10 3 -5 -3 -18 3 -30
15 -14 14 -33 20 -62 20 -24 0 -81 5 -128 11 -82 10 -89 9 -176 -20 -50 -16
-111 -35 -135 -41 -24 -6 -82 -29 -129 -49 -47 -21 -109 -46 -139 -56 -30 -10
-89 -42 -133 -71 -43 -29 -78 -48 -78 -41 0 6 6 40 14 75 7 34 12 62 10 62
-11 0 -64 -104 -70 -137 -8 -50 -5 -47 -169 -153 -71 -45 -150 -98 -175 -117
l-45 -35 -7 54 c-4 29 -12 95 -19 146 l-12 93 -29 -27 -28 -28 0 101 c0 101
-7 163 -19 163 -3 0 -18 -24 -33 -53 -23 -45 -26 -58 -19 -97 5 -25 9 -144 10
-265 l1 -220 -138 -134 c-104 -103 -157 -146 -222 -184 -100 -57 -127 -84
-135 -135 -3 -20 -15 -55 -27 -77 -17 -31 -18 -37 -5 -26 15 12 17 11 17 -3 0
-15 6 -14 43 8 23 14 65 45 93 70 48 42 75 55 332 162 l32 13 -5 -147 c-8
-212 -36 -405 -67 -465 -5 -10 -7 -21 -4 -24 3 -4 24 32 46 79 28 61 45 114
56 184 16 96 18 100 64 149 l48 50 4 103 c3 56 8 105 11 108 5 6 350 74 372
74 7 0 9 -132 7 -385 -2 -212 1 -385 6 -385 4 0 17 17 28 38 17 34 19 66 24
391 l5 354 72 22 c56 17 115 51 267 152 108 71 196 129 196 128 0 -2 -25 -54
-54 -116 -40 -82 -61 -142 -75 -214 -12 -55 -41 -172 -65 -260 -24 -88 -49
-186 -55 -219 -10 -55 -16 -64 -105 -157 -52 -54 -105 -112 -117 -129 l-23
-30 -307 0 c-241 0 -315 3 -347 14 l-41 15 -26 -56 c-30 -65 -29 -63 -9 -63
13 0 11 -8 -10 -46 l-25 -45 19 -50 c11 -27 29 -72 41 -101 29 -72 40 -402 29
-813 -11 -363 -28 -549 -71 -757 -35 -172 -53 -226 -97 -290 -33 -48 -79 -154
-63 -143 14 8 106 171 145 257 33 72 75 234 101 397 33 203 58 842 45 1176 -8
222 -10 233 -58 351 l-21 51 42 -3 c103 -8 592 -12 612 -4 15 6 29 26 41 59
10 29 33 65 53 83 l36 33 -29 -32 c-16 -18 -27 -35 -24 -38 3 -3 45 37 93 90
48 52 89 94 90 93 1 -2 -4 -64 -11 -138 -7 -74 -16 -196 -19 -270 -6 -116 -12
-151 -42 -248 -35 -112 -35 -114 -19 -157 10 -24 24 -49 32 -55 7 -7 14 -26
14 -42 0 -24 3 -28 13 -19 8 6 17 8 20 5 10 -11 24 35 40 136 12 72 29 124 70
215 103 228 113 244 334 548 72 99 140 199 153 223 17 36 84 276 125 449 7 29
7 28 24 -25 10 -30 32 -84 50 -118 18 -35 68 -147 111 -248 108 -252 206 -422
394 -684 38 -51 70 -99 72 -104 2 -6 -19 -26 -46 -44 -27 -19 -79 -61 -115
-94 l-65 -60 0 151 c0 83 -2 151 -4 151 -2 0 -32 -28 -65 -62 l-61 -63 6 -100
c7 -121 -11 -548 -30 -700 -14 -108 -15 -110 -51 -139 -80 -64 -230 -154 -242
-145 -7 7 -18 0 -33 -21 -12 -17 -47 -50 -78 -73 -61 -44 -223 -188 -335 -296
-61 -59 -69 -64 -78 -48 -6 10 -17 16 -27 13 -9 -3 -23 -2 -31 3 -10 7 -24 -2
-49 -32 -77 -93 -85 -106 -72 -122 10 -12 6 -17 -18 -32 -57 -35 -102 -83
-146 -155 -25 -40 -43 -75 -40 -77 2 -3 17 8 32 22 34 33 47 35 31 5 -11 -20
-10 -22 3 -10 13 10 17 10 20 0 5 -15 63 20 143 87 35 29 98 61 214 109 176
73 252 94 580 156 117 23 234 49 260 59 25 9 132 74 238 143 l192 127 -23 -52
c-13 -29 -38 -81 -54 -117 -17 -36 -42 -117 -56 -180 -14 -63 -39 -164 -56
-225 -69 -246 -97 -435 -119 -801 -7 -111 -15 -159 -40 -239 -34 -110 -33
-134 5 -186 13 -18 24 -43 24 -55 0 -17 5 -22 20 -21 24 2 44 61 56 161 8 68
108 304 180 426 25 41 112 167 195 280 82 113 163 232 179 265 24 50 58 170
125 450 7 29 8 28 21 -22 7 -29 32 -88 54 -133 22 -44 67 -144 101 -222 33
-79 83 -187 111 -241 52 -103 220 -366 314 -494 30 -40 54 -76 54 -79 0 -21
76 -193 93 -212 11 -12 39 -27 61 -33 23 -6 54 -23 70 -37 25 -24 27 -24 17
-5 -8 16 -8 22 1 25 16 6 -6 65 -51 135 -31 49 -46 89 -79 229 -53 214 -59
264 -72 572 -13 314 -13 289 2 274 7 -7 15 -12 18 -12 4 0 30 29 59 65 l53 65
-155 159 c-86 88 -163 174 -173 193 -38 74 -181 311 -257 425 -70 105 -88 126
-132 149 -27 15 -52 30 -55 34 -3 4 -14 10 -25 14 -14 6 -16 10 -7 13 27 10
812 -40 833 -53 5 -3 25 -35 45 -72 94 -171 297 -445 461 -622 35 -38 71 -94
103 -159 52 -106 70 -124 138 -140 24 -5 53 -17 64 -28 19 -16 21 -16 15 -1
-3 9 -1 19 6 21 15 5 -24 82 -74 142 -28 33 -51 86 -97 219 -71 205 -82 253
-122 548 -17 123 -38 252 -46 288 -14 63 -67 166 -195 383 -32 53 -55 97 -52
97 3 0 56 -27 117 -59 72 -38 141 -66 196 -80 47 -11 153 -43 235 -71 83 -28
184 -59 227 -70 92 -24 367 -65 538 -81 82 -8 146 -20 185 -34 159 -61 188
-64 237 -26 13 10 41 22 63 26 22 5 32 10 23 12 -10 3 -15 10 -12 18 6 16 -72
42 -159 54 -37 5 -97 31 -205 89 -198 105 -220 121 -457 317 -110 91 -220 179
-245 195 -42 26 -416 150 -455 150 -9 0 -13 5 -10 10 3 6 18 10 33 10 15 0 72
20 127 45 55 25 163 70 240 100 77 31 185 77 240 104 104 50 422 244 511 311
29 22 65 42 80 46 50 12 178 65 196 81 10 8 22 32 29 52 6 20 23 52 37 71 15
19 18 29 9 21 -15 -12 -17 -11 -17 3 0 23 -23 16 -128 -40 -69 -37 -111 -51
-250 -81 l-167 -36 -360 -6 -360 -6 -145 -59 c-267 -108 -411 -183 -686 -353
-100 -63 -125 -83 -145 -119 -21 -40 -30 -46 -106 -74 -45 -16 -118 -39 -162
-50 l-80 -20 -43 40 c-49 45 -95 52 -150 24 -29 -15 -30 -18 -24 -64 l6 -48
-52 -12 c-29 -6 -61 -14 -71 -17 -15 -4 -120 -153 -113 -160 1 -2 27 4 56 13
30 9 113 31 184 50 l129 33 29 -20 28 -20 0 25 c0 22 7 27 68 45 37 11 100 32
141 46 l74 25 -7 -43 c-21 -129 -19 -169 17 -307 58 -227 133 -431 195 -529
50 -80 92 -155 92 -164 0 -3 -48 10 -107 28 -72 21 -140 34 -205 39 -53 3
-174 22 -270 41 -209 41 -353 53 -429 35 -69 -16 -169 -62 -289 -132 -156 -92
-268 -138 -335 -138 l-30 0 12 153 c6 83 12 205 12 269 l1 116 53 45 c52 44
138 108 188 139 l26 17 28 -70 c23 -59 33 -73 66 -89 21 -11 44 -20 52 -20 8
0 22 -9 32 -20 18 -20 41 -28 30 -11 -3 5 2 11 10 13 13 2 9 16 -20 73 -19 39
-46 90 -60 114 -40 70 -36 77 73 159 82 61 105 85 138 140 21 37 41 71 43 75
2 5 -32 -20 -76 -55 -93 -74 -221 -163 -227 -157 -9 9 -55 237 -60 299 -3 36
-11 180 -17 320 -5 140 -15 275 -20 300 -12 52 -120 302 -188 435 -25 50 -47
93 -49 96 -4 10 223 91 373 133 72 21 143 42 159 47 24 7 26 7 16 -6 -6 -8
-20 -17 -31 -20 -11 -4 -30 -22 -43 -42 l-24 -35 -129 -2 c-70 -1 -135 -5
-143 -9 -13 -6 -95 -127 -108 -158 -2 -5 12 -4 30 2 97 29 397 15 552 -25 32
-9 70 -13 85 -10 29 6 290 -32 455 -66 54 -11 106 -20 115 -20 13 1 101 115
101 132 0 4 -28 9 -62 13 -35 4 -72 11 -83 16 l-20 8 20 0 c11 1 65 21 120 46
55 25 163 70 240 101 77 30 178 73 224 95 98 47 321 181 470 282 63 43 130 80
172 94 117 39 154 60 172 99 9 19 17 40 17 46 0 7 12 25 28 41 19 21 22 28 10
24 -10 -4 -18 -2 -18 3 0 17 -33 10 -90 -18z m-3027 -276 c6 -15 -19 -43 -29
-33 -8 8 5 47 16 47 4 0 10 -6 13 -14z m2602 1 c-127 -85 -347 -192 -555 -269
-30 -12 -98 -40 -151 -64 -65 -29 -128 -48 -190 -59 -52 -9 -110 -20 -129 -25
-48 -13 -262 -40 -324 -42 -47 -1 -246 49 -246 62 0 3 59 39 132 80 115 65
144 77 245 100 108 25 115 28 138 62 21 31 42 43 132 79 l108 42 350 8 c237 6
371 13 415 22 87 19 99 20 75 4z m-2554 -68 c10 -19 9 -20 -10 -9 -12 6 -21
18 -21 26 0 19 16 10 31 -17z m-244 -65 c20 -6 18 -9 -27 -45 -27 -21 -64 -63
-83 -91 -18 -29 -51 -69 -73 -87 -45 -40 -328 -227 -394 -261 -41 -21 -168
-59 -198 -60 -10 0 -12 35 -10 157 l3 157 40 28 c22 15 63 35 90 44 28 9 86
33 130 52 44 19 141 55 215 79 124 40 141 43 210 38 41 -3 85 -8 97 -11z m426
-224 c27 -44 46 -83 43 -88 -2 -4 -36 -23 -74 -41 -52 -25 -75 -43 -89 -68
-14 -26 -19 -29 -23 -17 -4 9 13 69 37 133 23 64 42 126 43 139 0 12 3 22 8
22 4 0 29 -36 55 -80z m-318 -51 c21 -120 19 -198 -11 -320 l-25 -108 -227
-218 c-124 -120 -222 -209 -218 -198 5 11 26 90 47 176 33 131 51 181 118 320
120 249 177 342 242 394 29 24 55 42 56 41 2 -1 10 -40 18 -87z m-955 -141 l0
-143 -168 -34 c-92 -18 -177 -35 -189 -38 -22 -5 -23 -2 -23 50 0 54 1 57 43
86 38 28 329 219 335 220 1 1 2 -63 2 -141z m1464 -186 l76 -178 10 -129 c5
-72 14 -220 20 -330 7 -129 19 -240 33 -312 13 -62 22 -113 21 -113 -1 0 -29
42 -62 93 -66 103 -106 180 -175 337 -25 58 -69 157 -98 220 -28 63 -62 147
-74 185 -26 81 -76 283 -75 306 0 10 42 36 113 71 94 47 114 54 123 42 6 -8
46 -94 88 -192z m-2004 -82 c-6 -11 -15 -20 -20 -20 -4 0 -17 -3 -27 -7 -10
-4 -6 4 12 20 36 32 50 34 35 7z m1410 -202 c-27 -89 -49 -126 -205 -343 -141
-195 -214 -310 -262 -410 l-33 -70 6 70 c9 113 23 203 50 316 l25 106 216 207
c118 114 217 205 220 203 2 -3 -5 -38 -17 -79z m3736 -46 c-3 -5 -47 -34 -98
-65 -88 -53 -195 -104 -368 -175 -41 -17 -140 -58 -220 -91 -80 -33 -174 -65
-210 -71 -36 -6 -105 -19 -155 -30 -104 -21 -251 -40 -320 -40 -26 0 -92 14
-147 31 l-99 32 173 98 c120 68 235 123 378 181 l205 82 335 7 c241 5 360 12
425 23 49 9 91 19 94 21 7 8 12 6 7 -3z m-1151 -626 c108 -26 408 -126 450
-150 22 -13 129 -97 238 -185 218 -177 287 -227 392 -283 39 -21 67 -38 62
-38 -4 0 -53 7 -110 15 -134 21 -226 44 -435 111 -96 30 -213 66 -260 80 -47
14 -111 40 -142 58 -30 18 -91 52 -135 75 -140 72 -305 190 -342 245 -18 26
-33 51 -33 55 0 9 125 27 200 29 30 1 82 -5 115 -12z m-465 -126 c19 -29 57
-67 89 -90 66 -47 115 -116 244 -350 51 -92 92 -179 101 -215 8 -33 29 -157
46 -275 40 -282 67 -406 109 -514 6 -16 10 -30 9 -32 -6 -5 -131 160 -183 241
-28 44 -80 132 -115 195 -35 63 -92 163 -126 221 -46 77 -78 149 -118 265 -64
186 -116 382 -116 438 0 39 19 166 25 166 2 0 17 -23 35 -50z m-724 -929 c-9
-13 -36 -15 -36 -2 0 5 3 17 6 26 6 15 8 15 22 2 8 -8 11 -20 8 -26z m49 -59
c-6 -7 -35 18 -35 31 0 5 9 2 20 -8 11 -10 18 -20 15 -23z m-266 -50 l45 -7
-53 -40 c-30 -23 -67 -64 -87 -97 -22 -35 -59 -76 -95 -104 -85 -65 -346 -233
-398 -255 -24 -11 -166 -44 -315 -74 -232 -46 -340 -73 -441 -110 -11 -4 -5 5
15 21 19 16 69 59 110 96 41 37 83 68 92 68 9 0 32 19 50 41 20 25 101 86 208
157 191 127 281 170 540 258 161 54 219 63 329 46z m420 -187 l24 -40 -51 50
-52 49 -29 -34 -30 -35 19 65 c11 36 20 74 20 85 0 19 32 -25 99 -140z m-289
-128 c12 -81 14 -128 7 -172 -15 -100 -107 -445 -131 -494 -13 -25 -84 -129
-157 -231 -165 -230 -191 -270 -256 -395 l-53 -100 6 70 c10 121 35 254 81
435 25 96 56 222 70 280 15 67 44 147 78 221 30 65 55 121 55 125 0 5 37 74
83 154 67 117 93 152 136 188 29 24 56 41 59 37 3 -3 13 -56 22 -118z m377
-229 c106 -107 178 -188 188 -211 16 -39 27 -159 45 -492 9 -176 33 -349 56
-410 11 -30 0 -17 -56 68 -62 96 -137 243 -223 442 -36 83 -81 183 -101 224
-19 40 -40 99 -46 130 -7 31 -23 99 -36 152 -13 53 -28 127 -34 165 -5 38 -13
87 -17 108 l-6 40 29 -21 c16 -12 106 -99 201 -195z"/>
<path d="M884 12373 l-71 -4 -23 -49 c-13 -28 -21 -53 -17 -56 3 -3 49 -2 103
3 l98 8 23 53 23 52 -33 -2 c-17 -1 -64 -4 -103 -5z"/>
<path d="M3122 11107 l-62 -63 -19 -109 c-11 -61 -31 -143 -45 -184 -14 -41
-26 -77 -26 -80 0 -3 29 24 65 59 59 59 67 72 94 155 28 82 67 272 58 281 -2
2 -31 -25 -65 -59z"/>
<path d="M650 10978 c-11 -26 -20 -50 -20 -55 0 -4 60 -5 132 -2 73 4 149 7
168 8 31 1 37 5 53 44 9 23 17 44 17 47 0 3 -74 5 -165 5 l-165 0 -20 -47z"/>
<path d="M1133 10667 c-77 -116 -101 -200 -128 -462 -31 -293 -12 -1216 31
-1482 l6 -40 -48 -6 c-27 -3 -89 -11 -139 -17 -57 -8 -156 -11 -272 -7 l-181
5 -21 -48 c-12 -27 -21 -52 -21 -55 0 -4 155 -5 345 -4 l345 4 11 28 c6 15 14
27 18 27 3 -1 19 -21 34 -45 16 -25 33 -45 38 -45 6 0 20 23 33 52 l23 52 -32
42 c-72 94 -84 143 -105 424 -17 227 -25 1006 -11 1135 28 273 43 358 74 413
33 59 33 78 0 29z"/>
<path d="M631 10633 c-12 -27 -24 -59 -26 -72 -3 -14 -11 -31 -18 -38 -10 -11
-12 -28 -6 -71 23 -178 32 -381 20 -517 -6 -78 -11 -209 -11 -292 0 -84 -8
-211 -17 -285 -9 -73 -16 -183 -15 -243 1 -88 -3 -128 -21 -197 l-23 -87 65
61 c88 80 101 120 111 358 5 96 15 236 23 310 22 190 29 679 13 855 -7 77 -10
144 -8 149 3 5 41 6 86 3 58 -5 88 -12 108 -27 15 -11 31 -20 36 -20 5 0 18
24 29 52 l20 53 -35 27 c-34 28 -37 28 -172 28 l-137 0 -22 -47z"/>
<path d="M7035 8754 c-38 -20 -81 -42 -95 -49 -14 -8 -106 -30 -205 -50 l-180
-37 -336 -4 -337 -3 -88 -34 c-300 -116 -482 -208 -747 -375 -100 -63 -124
-83 -153 -128 -19 -30 -39 -54 -44 -54 -5 0 -7 -6 -4 -13 3 -8 -2 -20 -11 -27
-14 -12 -28 -1 -111 81 -52 52 -190 203 -307 336 -172 196 -214 239 -223 227
-15 -19 -23 -18 -19 4 2 9 6 44 9 77 l4 60 -67 -73 -68 -74 -6 -126 c-4 -70
-7 -172 -7 -227 l0 -100 65 66 c65 66 65 67 65 124 0 52 1 56 17 44 20 -17
351 -380 491 -539 59 -66 102 -124 102 -136 0 -36 87 -355 132 -484 49 -139
51 -144 118 -250 26 -41 80 -136 120 -210 41 -74 99 -173 131 -220 60 -91 241
-320 346 -437 43 -49 80 -105 113 -172 49 -100 79 -131 127 -131 10 0 28 -6
39 -13 70 -40 69 -40 57 -26 -15 16 -17 33 -3 24 31 -19 -6 53 -71 141 -42 55
-131 287 -167 435 -12 46 -37 199 -56 339 -20 140 -42 278 -49 307 -12 44
-174 345 -229 425 -10 14 -18 29 -18 33 0 3 51 -21 114 -54 74 -40 145 -69
207 -86 52 -13 168 -49 259 -78 238 -78 420 -113 774 -147 60 -6 118 -16 129
-22 37 -19 160 -58 186 -58 14 0 44 11 66 25 22 13 53 25 68 25 20 0 26 4 20
13 -4 6 -8 16 -8 21 0 13 -65 34 -144 47 -48 8 -102 30 -201 81 -183 96 -265
152 -470 323 -276 230 -226 204 -685 349 l-40 13 40 7 c22 4 82 27 135 51 52
24 169 73 260 109 91 36 192 78 225 94 76 37 298 173 439 268 72 50 136 84
191 103 128 44 137 51 165 108 14 28 33 60 43 70 22 25 22 34 0 26 -11 -4 -14
-3 -9 5 14 23 -29 12 -99 -24z m-465 -300 c-115 -71 -216 -120 -440 -212 -364
-150 -404 -161 -725 -203 -163 -21 -174 -20 -301 21 l-86 27 104 60 c176 103
268 149 413 209 255 103 207 95 600 105 237 5 371 13 415 22 99 22 100 21 20
-29z m-1641 -441 c-7 -10 -14 -20 -16 -22 -1 -1 -7 0 -13 4 -8 5 -5 11 7 21
25 19 38 17 22 -3z m-46 -47 c3 -8 3 -17 0 -20 -9 -9 -44 14 -38 25 9 14 32
11 38 -5z m623 -102 c32 -8 136 -39 230 -69 195 -63 199 -65 445 -267 192
-157 241 -193 352 -259 45 -27 76 -49 69 -49 -77 0 -307 52 -487 110 -55 18
-164 52 -242 75 -84 25 -165 57 -200 78 -32 19 -83 47 -113 62 -30 15 -114 65
-186 111 -111 71 -138 94 -173 144 -23 33 -41 60 -39 61 2 0 46 7 98 14 105
15 157 12 246 -11z m-456 -160 c8 -11 36 -35 63 -53 29 -19 66 -60 95 -104 71
-105 222 -381 238 -433 7 -25 27 -141 44 -257 38 -262 64 -397 99 -504 15 -46
26 -83 25 -83 -1 0 -34 39 -72 88 -81 102 -134 183 -222 342 -34 63 -94 167
-131 230 -72 123 -139 301 -200 537 -32 124 -37 192 -19 280 l12 54 26 -39
c15 -21 34 -48 42 -58z"/>
<path d="M305 8466 l-27 -46 26 -97 c13 -54 37 -159 52 -233 25 -127 27 -150
25 -369 -1 -128 -8 -342 -16 -475 -13 -216 -18 -254 -48 -367 -18 -69 -41
-136 -50 -149 -13 -19 -14 -27 -4 -44 17 -30 21 -511 8 -941 -10 -351 -22
-471 -65 -635 -8 -30 -13 -56 -12 -58 2 -1 15 16 30 39 16 24 35 74 45 121
l17 80 23 -79 22 -79 -20 -48 c-12 -26 -21 -48 -21 -49 0 -1 135 -2 299 -3
l299 -1 25 59 26 59 -270 -3 c-148 -2 -269 -1 -269 2 0 2 17 21 37 42 l37 38
-18 63 c-10 34 -22 87 -28 117 -14 78 -3 415 21 600 20 157 46 508 38 516 -2
3 -31 -23 -64 -57 l-60 -62 -8 -141 c-16 -305 -24 -277 -20 69 2 193 0 373 -4
402 -6 41 -3 59 10 85 10 18 18 42 19 54 0 11 11 63 25 115 16 58 29 145 35
229 16 232 30 782 20 830 -23 112 -7 90 29 -41 16 -57 40 -136 55 -175 21 -61
24 -79 16 -120 -4 -27 -18 -98 -29 -159 -16 -88 -21 -160 -23 -362 l-3 -253
67 67 68 67 0 236 c0 237 2 252 50 516 11 57 10 67 -15 135 -15 41 -46 137
-69 214 -23 77 -49 152 -57 167 l-14 27 -55 -66 -54 -65 -7 28 c-4 16 -17 72
-29 124 -30 130 -32 132 -65 76z"/>
<path d="M782 8503 l-293 -3 -25 -56 c-14 -31 -24 -57 -22 -58 2 0 137 0 301
2 l298 3 24 56 c28 61 28 64 18 61 -5 -2 -140 -4 -301 -5z"/>
<path d="M1152 8443 c-31 -50 -41 -86 -73 -268 -16 -94 -21 -195 -30 -675 -6
-311 -8 -610 -6 -665 4 -71 2 -107 -8 -125 -13 -26 -48 -171 -70 -295 -7 -38
-18 -252 -25 -475 -10 -321 -10 -421 0 -480 17 -107 68 -336 87 -394 l15 -49
30 51 c28 50 29 52 15 94 -20 57 -72 301 -88 406 -10 66 -10 153 0 430 7 191
16 390 21 442 11 112 63 327 85 349 13 13 54 17 228 21 148 3 219 9 235 18 12
7 32 10 43 7 14 -5 27 1 42 17 21 22 38 25 257 46 129 13 287 27 350 32 209
17 302 45 383 117 61 55 137 105 220 143 63 30 79 32 57 5 -7 -9 -11 -17 -9
-18 2 -2 76 -20 164 -41 88 -22 231 -58 318 -81 l157 -42 51 69 c29 38 50 70
48 72 -2 2 -40 11 -84 21 -77 17 -344 89 -375 102 -13 5 18 13 218 54 50 10
55 14 97 77 25 37 41 68 36 70 -5 2 -84 -13 -177 -33 -406 -87 -500 -124 -656
-261 -25 -22 -73 -51 -105 -63 -59 -23 -178 -51 -214 -51 -20 0 -20 0 -1 28
37 54 37 55 1 47 -19 -4 -48 -15 -65 -25 l-31 -17 -11 31 c-6 17 -13 50 -17
74 -4 23 -12 42 -19 42 -7 0 -25 -21 -40 -47 -62 -109 -96 -141 -136 -128 -12
4 -25 -3 -37 -19 -17 -21 -32 -25 -121 -35 -57 -6 -116 -11 -133 -11 -29 0
-29 0 -13 26 13 19 14 28 5 37 -8 8 -21 1 -51 -28 -39 -38 -40 -38 -40 -15
l-1 25 -24 -28 c-24 -27 -30 -28 -192 -42 -92 -8 -198 -20 -236 -27 -61 -10
-70 -15 -88 -45 -14 -23 -25 -31 -32 -24 -13 13 -2 1146 12 1256 14 107 51
296 63 318 21 40 -1 25 -30 -20z"/>
<path d="M4337 7113 c-15 -8 -70 -25 -122 -37 -100 -24 -114 -31 -197 -99 -29
-23 -69 -54 -88 -67 -31 -21 -72 -58 -251 -227 -26 -24 -71 -78 -100 -121 -59
-85 -159 -217 -165 -217 -2 0 -20 22 -39 49 -19 28 -54 61 -78 75 -23 14 -53
35 -66 46 -28 24 -319 375 -416 503 -38 50 -72 91 -75 91 -3 0 -31 -32 -63
-71 l-57 -70 78 -87 c43 -47 120 -135 171 -196 73 -87 89 -111 74 -113 -55
-10 -327 -100 -403 -133 -120 -53 -122 -53 -103 17 8 31 12 59 8 62 -10 10
-107 -101 -127 -145 -24 -53 -75 -95 -107 -86 -18 5 -35 -7 -89 -60 -37 -35
-104 -88 -150 -116 -118 -72 -184 -125 -376 -301 l-170 -155 52 78 c48 70 51
77 31 77 -12 0 -45 -18 -73 -39 -28 -22 -63 -45 -78 -52 -15 -7 -42 -37 -61
-68 -18 -31 -42 -69 -52 -85 l-19 -29 30 16 c16 8 53 34 83 56 30 23 61 41 70
41 29 0 -62 -79 -145 -126 -102 -57 -122 -77 -133 -137 -4 -25 -16 -58 -25
-71 -20 -31 -21 -42 -1 -26 12 10 15 9 15 -4 0 -16 2 -16 31 1 17 10 60 42 95
71 48 39 100 68 202 111 180 76 241 95 395 126 116 22 131 24 150 10 29 -20
65 -19 111 5 22 10 43 17 47 14 5 -3 13 -23 19 -45 8 -30 15 -39 26 -35 9 3
22 6 30 6 17 0 46 53 53 99 5 27 13 36 46 49 22 9 123 71 225 138 102 67 187
120 189 119 2 -2 -20 -52 -49 -112 -37 -77 -59 -140 -76 -218 -13 -60 -40
-168 -59 -240 -69 -251 -72 -267 -123 -850 -5 -55 -21 -138 -35 -185 -33 -106
-33 -128 -2 -175 14 -20 30 -53 34 -73 5 -21 9 -29 10 -20 1 11 6 15 15 12 18
-7 35 49 46 147 5 49 25 104 81 230 83 184 116 237 301 492 184 252 189 262
233 437 21 83 41 152 45 155 9 6 215 -300 239 -356 l19 -47 -38 -37 c-31 -31
-39 -46 -45 -91 -5 -42 -67 -239 -120 -379 -4 -11 26 13 66 53 70 71 74 73 89
55 141 -180 188 -237 232 -286 l53 -57 57 71 58 72 -74 81 c-78 86 -187 230
-213 280 l-16 31 -48 -55 -49 -55 36 110 c20 61 38 117 40 124 3 9 20 -14 40
-53 40 -77 197 -320 288 -446 41 -58 73 -117 98 -184 44 -115 57 -132 112
-148 23 -6 54 -23 70 -37 20 -18 27 -21 23 -9 -3 9 -1 18 6 21 14 4 -10 62
-61 146 -23 38 -44 101 -72 210 -56 227 -59 251 -70 536 -15 379 -13 370 -114
599 -47 108 -86 198 -86 200 0 3 28 21 62 42 33 21 77 51 96 68 32 28 244 301
293 378 l21 33 -6 -55 c-17 -160 -18 -222 -3 -345 9 -71 21 -193 27 -271 6
-77 17 -178 25 -225 15 -96 105 -449 141 -556 17 -50 24 -95 24 -150 1 -128
11 -162 63 -208 24 -22 52 -53 61 -70 14 -25 16 -26 12 -7 -3 18 -1 22 11 18
14 -6 15 2 10 61 -4 38 -12 88 -19 112 -11 35 -11 76 -1 202 16 228 24 264
114 574 75 258 82 287 83 375 1 82 -13 261 -30 395 l-5 40 23 -30 c23 -30 243
-259 418 -435 92 -92 345 -291 500 -392 41 -27 82 -60 90 -74 9 -13 44 -53 78
-89 52 -54 67 -64 101 -67 l39 -3 -132 -111 c-382 -324 -621 -575 -710 -744
-66 -125 -65 -132 12 -56 56 54 75 82 97 137 36 94 49 98 40 14 -9 -77 -12
-73 122 -165 88 -61 125 -65 177 -19 28 24 34 36 31 57 -2 15 -7 58 -10 95
l-7 68 -34 -31 c-19 -16 -42 -30 -52 -30 -23 0 -108 50 -156 92 l-39 34 149
141 c262 248 581 510 609 499 8 -3 12 0 10 7 -3 7 11 22 30 35 42 27 42 30 20
-112 l-14 -97 44 -167 c42 -162 117 -391 145 -442 7 -14 34 -59 60 -100 26
-41 80 -136 120 -210 41 -74 100 -175 133 -223 59 -90 271 -356 360 -453 28
-31 68 -94 97 -153 49 -100 78 -131 127 -131 10 0 28 -6 39 -13 70 -40 69 -40
57 -26 -15 16 -17 33 -3 24 28 -17 -14 66 -71 141 -27 35 -55 97 -94 205 -72
198 -86 261 -130 569 -19 140 -41 278 -49 307 -12 45 -175 348 -228 425 -10
14 -18 29 -18 33 0 4 35 -12 78 -36 128 -70 146 -77 259 -108 59 -17 169 -50
243 -75 74 -24 171 -54 215 -65 86 -22 369 -63 555 -82 63 -6 123 -15 134 -21
36 -19 160 -58 185 -58 14 0 44 11 66 25 22 13 56 25 75 26 19 1 27 3 17 6
-10 2 -16 12 -15 20 4 19 -49 39 -141 54 -50 8 -100 28 -211 86 -182 95 -242
137 -460 318 -250 208 -261 215 -468 280 -235 74 -260 83 -240 84 26 1 107 30
163 58 28 14 135 59 240 100 104 41 219 90 255 108 77 39 436 262 489 304 20
16 71 41 114 55 132 44 149 55 177 113 14 28 33 60 43 70 22 25 22 34 0 26
-11 -4 -14 -3 -9 5 4 8 0 12 -11 12 -16 0 -41 -12 -168 -78 -22 -11 -121 -37
-220 -58 l-180 -37 -300 -3 c-165 -2 -323 -6 -352 -8 -81 -7 -417 -150 -618
-263 -208 -118 -364 -217 -372 -238 -3 -9 -51 -50 -106 -91 l-100 -75 -41 39
c-23 21 -51 46 -64 54 -25 17 -181 242 -238 344 -19 34 -80 174 -135 311 -55
136 -114 274 -132 305 -74 132 -428 466 -724 682 -77 56 -100 68 -143 73 -28
3 -58 12 -66 20 -8 8 -14 10 -14 4 0 -16 -16 -14 -34 4 -8 8 -16 15 -18 14 -2
-1 -16 -8 -31 -16z m61 -40 c-5 -25 -28 -28 -28 -4 0 12 6 21 16 21 9 0 14 -7
12 -17z m67 -41 c-7 -8 -35 7 -35 18 0 6 7 6 20 -2 10 -7 17 -14 15 -16z m538
-454 c77 -81 153 -167 168 -190 16 -23 63 -128 105 -232 90 -224 164 -384 223
-479 23 -38 36 -65 29 -61 -43 27 -174 134 -238 196 -166 160 -427 446 -465
508 -21 36 -53 85 -70 110 -18 25 -64 104 -103 175 -70 128 -71 132 -81 234
-6 57 -11 110 -11 118 0 28 301 -230 443 -379z m-738 295 c-44 -66 -58 -97
-69 -152 -7 -32 -28 -84 -47 -116 -63 -105 -268 -369 -317 -408 -46 -37 -194
-131 -224 -142 -11 -4 -31 20 -72 89 l-56 95 89 123 c49 68 113 143 143 168
29 24 82 72 118 106 64 60 274 224 288 224 4 0 39 9 77 20 91 24 90 25 70 -7z
m199 -227 c64 -120 76 -173 100 -458 18 -209 18 -210 -65 -499 -63 -223 -93
-345 -103 -424 -18 -141 -16 -140 -42 -35 -29 113 -49 247 -64 425 -6 72 -18
191 -26 266 -8 75 -13 147 -10 160 3 13 10 80 16 149 6 69 22 187 35 263 20
117 29 146 60 197 20 33 38 60 40 60 2 0 28 -47 59 -104z m-1498 -267 l63 -11
-51 -38 c-28 -22 -68 -65 -88 -98 -45 -70 -99 -114 -314 -251 -170 -108 -226
-132 -376 -156 -47 -8 -106 -19 -132 -25 -48 -12 -48 -11 -131 39 -45 28 -86
51 -90 51 -4 0 -7 -31 -7 -70 l0 -69 -42 -11 c-36 -9 -143 -45 -223 -76 -26
-9 99 106 183 170 153 115 415 278 435 270 22 -8 69 19 111 66 43 48 116 81
366 166 165 56 197 60 296 43z m375 -133 c-10 -12 -33 -43 -50 -71 -17 -27
-31 -45 -31 -40 0 32 32 121 52 142 21 22 23 23 35 7 11 -15 10 -21 -6 -38z
m-271 -268 c-32 -124 -76 -246 -144 -393 l-37 -80 45 45 c25 24 46 39 46 34 0
-6 -9 -19 -19 -28 -11 -10 -46 -52 -78 -94 l-58 -76 0 -96 c0 -72 3 -93 11
-82 9 12 12 13 16 1 3 -8 -41 -79 -98 -159 -57 -80 -131 -197 -164 -260 l-61
-115 6 85 c8 109 36 256 87 450 22 85 52 202 65 259 14 61 42 142 67 195 24
50 53 112 64 138 11 26 53 104 93 174 59 104 82 134 128 170 l56 44 3 -45 c2
-26 -10 -94 -28 -167z m402 101 l47 -82 -85 -53 c-47 -29 -97 -63 -112 -74
l-27 -22 -8 61 -9 62 53 72 c28 40 59 82 68 94 9 12 18 22 21 23 3 0 26 -37
52 -81z m167 -352 c59 -137 67 -183 76 -402 9 -239 24 -409 46 -510 10 -49 19
-93 19 -98 0 -36 -197 314 -220 391 -12 40 -12 42 19 77 18 21 28 41 24 48 -3
7 -48 66 -98 132 -129 168 -146 196 -160 267 -8 35 -12 64 -11 65 8 8 250 152
252 150 2 -1 26 -56 53 -120z m4201 67 c-132 -82 -237 -131 -520 -244 -52 -21
-126 -52 -164 -69 -38 -17 -105 -38 -150 -46 -44 -7 -110 -21 -146 -29 -36 -8
-130 -22 -210 -31 l-145 -16 -109 34 -108 34 103 60 c192 112 273 151 469 229
l195 77 355 8 c251 6 373 12 415 22 93 23 94 20 15 -29z m-4860 -424 c-6 -11
-13 -20 -16 -20 -2 0 0 9 6 20 6 11 13 20 16 20 2 0 0 -9 -6 -20z m3219 -17
c-7 -10 -14 -20 -16 -22 -1 -1 -7 0 -13 4 -8 5 -5 11 7 21 25 19 38 17 22 -3z
m-46 -47 c3 -8 3 -17 0 -20 -9 -9 -44 14 -38 25 9 14 32 11 38 -5z m625 -102
c31 -8 134 -39 228 -69 196 -63 196 -63 449 -271 174 -142 276 -216 378 -273
53 -30 73 -46 45 -36 -7 2 -58 11 -114 19 -122 18 -204 39 -444 116 -102 32
-217 68 -255 79 -39 11 -92 34 -118 51 -27 17 -84 48 -127 70 -43 22 -131 75
-197 118 -96 64 -125 90 -156 136 -20 31 -36 56 -35 57 2 0 48 7 103 14 108
14 155 12 243 -11z m-402 -209 c33 -23 71 -63 102 -108 68 -99 221 -378 238
-432 7 -25 27 -143 44 -262 37 -254 72 -430 104 -519 13 -35 22 -64 21 -64 -2
0 -35 39 -73 88 -84 105 -132 181 -242 377 -46 83 -105 186 -131 230 -54 89
-129 303 -185 522 -30 119 -32 138 -23 195 20 130 16 126 57 63 20 -31 58 -70
88 -90z"/>
<path d="M810 6889 c-74 -4 -193 -10 -265 -14 l-130 -8 -23 -50 c-12 -28 -20
-52 -18 -54 2 -3 70 0 149 6 80 6 192 11 249 12 57 1 127 4 157 7 55 7 55 7
78 60 l23 52 -43 -2 c-23 -1 -103 -5 -177 -9z"/>
<path d="M780 6760 c-36 -4 -136 -8 -223 -9 l-158 -1 -25 -56 c-14 -31 -24
-58 -22 -59 6 -6 356 15 432 25 43 6 100 9 125 5 l46 -6 28 55 27 56 -83 -2
c-45 0 -111 -4 -147 -8z"/>
<path d="M5374 5227 c-41 -41 -67 -79 -79 -112 -22 -61 -143 -327 -277 -610
-129 -269 -199 -431 -229 -523 -21 -67 -27 -76 -64 -94 -22 -12 -96 -53 -165
-93 -69 -40 -146 -83 -171 -95 -25 -13 -54 -36 -64 -52 -14 -24 -22 -28 -43
-24 -15 3 -72 11 -126 17 -85 10 -103 16 -123 37 -22 24 -23 24 -23 3 0 -11
-3 -21 -7 -21 -5 0 -105 14 -223 30 -118 16 -220 30 -227 30 -9 0 -11 18 -6
65 5 57 3 68 -13 80 -25 19 -34 19 -126 -2 l-78 -17 0 -41 c0 -23 -2 -44 -5
-47 -8 -8 -319 50 -467 88 -162 40 -267 74 -358 116 l-65 29 -28 -35 -29 -36
-60 43 c-93 65 -318 254 -470 395 l-137 127 6 88 6 87 -32 0 c-17 0 -50 -8
-73 -17 l-42 -17 -49 55 c-68 76 -180 225 -233 311 -24 40 -47 72 -50 71 -2
-1 -30 -32 -61 -68 -53 -63 -55 -67 -42 -92 21 -39 206 -268 288 -354 39 -42
71 -85 71 -95 0 -30 16 -47 36 -40 25 8 114 -67 115 -97 0 -12 3 -16 6 -10 3
8 53 -32 128 -99 l123 -112 7 -103 c7 -99 8 -103 30 -103 46 0 125 23 125 37
0 7 3 13 7 13 3 0 45 -33 92 -72 133 -112 119 -105 139 -78 9 13 19 27 22 31
3 5 43 -3 88 -16 65 -19 256 -65 420 -101 22 -5 22 -5 -13 -49 l-37 -44 38
-33 c138 -119 211 -184 299 -268 144 -136 281 -259 428 -384 70 -60 127 -110
125 -111 -2 -2 -42 2 -89 7 -87 11 -87 11 -220 -31 -74 -23 -156 -51 -184 -62
-27 -12 -90 -37 -140 -57 -49 -19 -128 -60 -174 -91 -46 -31 -155 -102 -242
-158 -236 -151 -328 -226 -599 -488 -67 -65 -135 -119 -188 -150 -103 -61
-122 -82 -129 -137 -3 -23 -14 -55 -24 -70 -22 -31 -25 -45 -5 -29 11 9 15 9
18 0 6 -17 38 2 119 67 45 37 103 70 185 105 216 93 262 106 544 160 367 69
348 61 630 248 74 50 136 88 138 86 2 -2 -18 -51 -46 -108 -27 -58 -58 -140
-67 -184 -10 -43 -38 -154 -63 -248 -24 -93 -53 -210 -64 -260 -22 -103 -58
-471 -58 -592 0 -64 -6 -101 -31 -175 -39 -116 -42 -172 -11 -215 12 -17 25
-46 28 -63 4 -20 10 -27 14 -20 4 7 13 10 18 6 14 -8 29 46 42 142 8 57 26
110 82 235 81 181 111 230 308 502 75 105 149 210 163 235 23 41 127 417 127
462 0 32 17 20 23 -17 3 -19 28 -81 55 -137 28 -57 77 -167 111 -246 33 -78
79 -178 101 -223 43 -85 241 -392 317 -493 25 -32 51 -75 58 -95 7 -20 27 -71
45 -114 28 -67 38 -80 71 -97 21 -11 44 -20 52 -20 8 0 22 -9 32 -20 22 -24
37 -26 28 -3 -4 11 -3 14 5 9 28 -17 -5 71 -58 154 -19 30 -42 97 -69 205 -55
217 -59 251 -71 555 -6 146 -15 292 -19 325 -12 85 -166 426 -276 612 -154
259 -240 380 -286 404 -23 11 -39 22 -37 23 1 2 43 -5 92 -15 173 -35 398 -51
919 -65 l228 -6 -16 -24 c-15 -24 -14 -26 84 -119 111 -107 197 -205 330 -375
l90 -115 -6 -55 c-4 -44 3 -87 37 -214 22 -87 45 -166 49 -175 5 -9 23 -61 41
-116 38 -115 55 -153 115 -244 23 -36 75 -127 115 -201 40 -74 98 -173 128
-220 58 -89 251 -332 351 -443 35 -39 77 -101 106 -158 59 -117 75 -135 136
-149 27 -7 61 -21 75 -33 l27 -20 -13 23 c-11 20 -10 22 4 17 9 -4 16 -3 16 2
0 8 -75 123 -114 176 -24 32 -132 350 -150 440 -8 44 -27 164 -41 266 -33 242
-50 338 -68 380 -14 34 -186 337 -221 391 -10 16 -15 28 -10 28 4 0 52 -25
106 -56 69 -40 129 -65 201 -84 56 -15 179 -53 272 -83 94 -30 199 -62 235
-71 75 -18 361 -59 530 -76 63 -7 118 -14 122 -17 28 -16 177 -63 203 -63 18
0 49 11 69 25 20 14 51 25 68 25 30 0 31 1 12 15 -14 11 -15 14 -4 15 46 1
-77 43 -163 55 -50 7 -292 127 -399 198 -29 20 -141 108 -248 197 -275 227
-268 224 -517 300 l-213 64 58 16 c31 9 84 29 117 44 33 15 138 59 234 98 96
38 213 89 262 113 96 49 413 244 496 306 29 21 58 39 65 39 7 0 55 16 106 36
83 32 94 40 112 74 11 22 20 45 20 52 0 6 12 25 28 41 15 17 21 27 13 22 -8
-4 -16 -2 -21 5 -10 17 -59 0 -135 -46 -56 -33 -150 -59 -380 -104 -33 -7
-217 -15 -415 -19 l-355 -8 -180 -75 c-210 -88 -244 -104 -430 -211 -254 -146
-317 -190 -350 -246 -16 -28 -36 -51 -45 -51 -8 1 -44 36 -79 80 -35 43 -112
134 -171 202 l-108 123 149 6 c82 3 150 7 152 10 2 2 27 39 56 82 46 69 49 77
29 72 -81 -18 -123 -25 -199 -31 l-86 -6 3 88 3 89 -14 -79 c-8 -43 -17 -86
-20 -94 -5 -13 -42 -14 -283 -8 -152 3 -339 9 -414 12 l-138 7 0 46 c0 38 -5
51 -30 74 l-30 29 0 -34 c0 -18 -3 -50 -7 -71 l-6 -39 -61 7 c-123 13 -254 38
-390 75 -76 21 -144 36 -152 33 -14 -5 -143 90 -307 228 -123 102 -526 500
-512 505 6 2 229 -29 495 -71 457 -70 486 -76 505 -99 22 -26 83 -66 103 -66
7 0 12 13 12 34 l0 33 51 -10 c48 -9 52 -9 72 15 12 14 45 38 72 54 28 15 98
56 158 91 59 35 187 103 285 152 l178 89 47 77 c27 42 44 75 40 73 -4 -2 -36
-18 -70 -36 -34 -17 -64 -32 -66 -32 -9 0 23 128 49 200 38 107 79 197 286
635 182 383 222 474 215 481 -2 2 -30 -25 -63 -59z m-1610 -2488 c-3 -5 -10
-7 -15 -3 -5 3 -7 10 -3 15 3 5 10 7 15 3 5 -3 7 -10 3 -15z m3641 -8 c-28
-24 -202 -121 -285 -158 -119 -53 -448 -189 -515 -213 -68 -25 -238 -57 -427
-81 l-157 -21 -73 22 c-40 12 -92 28 -116 34 l-42 12 142 81 c183 104 233 129
403 199 221 90 190 85 580 94 240 6 370 13 415 23 83 19 86 19 75 8z m-3577
-32 c12 -19 11 -19 -8 -9 -11 6 -20 15 -20 20 0 17 15 11 28 -11z m-234 -65
c13 -5 6 -14 -33 -41 -31 -22 -65 -59 -89 -97 -45 -72 -91 -108 -322 -258 -84
-54 -175 -105 -204 -113 -28 -9 -163 -38 -299 -65 -211 -42 -370 -86 -492
-134 -30 -13 88 95 190 172 50 38 149 106 220 152 124 79 220 143 275 182 37
27 277 124 430 174 127 41 140 44 221 39 48 -2 94 -7 103 -11z m406 -205 c57
-94 132 -237 167 -318 113 -255 113 -253 124 -445 21 -385 30 -491 49 -583 11
-53 18 -98 17 -100 -6 -5 -116 174 -155 252 -21 44 -63 134 -92 200 -28 66
-76 173 -106 238 -63 137 -107 304 -149 568 -19 124 -19 150 4 234 10 39 21
82 25 98 4 15 8 27 10 27 3 0 50 -77 106 -171z m-304 -89 c10 -65 14 -129 10
-168 -7 -86 -101 -445 -132 -509 -14 -29 -80 -128 -146 -220 -154 -213 -214
-306 -272 -418 l-47 -90 6 80 c9 113 39 269 90 464 25 93 54 211 65 262 12 54
39 131 65 184 24 49 60 124 79 165 33 69 107 204 142 257 15 23 114 106 120
101 1 -2 10 -51 20 -108z m2004 -95 c-7 -8 -17 -12 -22 -9 -5 3 -1 12 9 19 22
17 30 11 13 -10z m535 -130 c135 -28 439 -132 495 -170 28 -19 122 -92 208
-163 187 -154 292 -230 390 -284 39 -22 72 -41 72 -42 0 -5 -231 33 -290 48
-36 10 -148 44 -250 76 -102 32 -214 66 -250 76 -130 34 -547 275 -613 354
-26 30 -61 89 -55 91 2 0 48 7 103 14 55 7 104 13 108 14 4 0 41 -6 82 -14z
m-445 -125 c17 -27 60 -72 95 -99 38 -30 80 -76 107 -118 82 -124 217 -377
232 -436 8 -32 29 -156 46 -275 36 -248 60 -370 95 -473 14 -40 24 -74 22 -75
-4 -5 -103 121 -153 196 -28 41 -84 134 -124 205 -40 72 -104 183 -143 248
-38 65 -80 151 -92 190 -13 40 -37 108 -53 152 -16 44 -44 141 -62 216 -33
134 -33 136 -20 227 7 51 14 92 15 92 2 0 17 -22 35 -50z"/>
<path d="M1085 5019 c-40 -61 -132 -237 -150 -289 -25 -69 -74 -317 -91 -458
-9 -76 -19 -314 -26 -592 -13 -542 -7 -653 42 -777 17 -41 30 -75 30 -76 0 -1
-148 -1 -330 1 l-330 3 -25 -57 c-14 -31 -25 -57 -25 -58 0 0 128 0 284 2 257
3 335 -1 411 -23 17 -5 25 3 47 49 22 44 24 55 12 60 -12 4 -10 13 8 51 l22
45 -37 91 c-52 127 -60 245 -52 729 7 426 24 649 66 864 40 202 53 244 100
317 36 54 85 159 75 159 -2 0 -16 -19 -31 -41z"/>
<path d="M194 4967 l-28 -57 20 -22 c42 -47 82 -125 93 -178 6 -30 18 -151 26
-267 18 -253 21 -1061 4 -1211 -21 -194 -39 -283 -70 -346 -24 -48 -25 -56 -9
-36 44 51 104 192 116 269 l12 76 1 -99 1 -99 26 24 c14 13 44 46 67 72 l41
49 -1 391 c0 218 -6 428 -11 472 -6 44 -14 206 -18 360 -3 154 -9 302 -13 328
l-6 48 -39 -46 c-21 -25 -40 -44 -42 -42 -3 2 -9 41 -14 87 -5 45 -12 91 -16
102 -5 16 -2 19 14 14 11 -4 59 1 108 9 66 12 146 15 304 14 l215 -2 23 53
c12 29 21 53 20 55 -2 1 -145 -2 -317 -6 -189 -4 -325 -3 -339 2 -14 5 -26 8
-27 7 -1 -2 -10 -18 -20 -37 l-17 -33 -18 28 c-10 16 -28 40 -38 54 l-20 24
-28 -57z"/>
<path d="M397 2960 c-15 -35 -21 -60 -14 -60 6 0 20 -9 31 -20 19 -17 37 -19
165 -21 l144 -1 17 33 c10 19 21 44 24 57 l7 22 -137 0 c-131 0 -139 1 -170
25 -18 14 -34 25 -37 25 -2 0 -15 -27 -30 -60z"/>
<path d="M267 2624 c-15 -30 -25 -59 -22 -64 10 -15 -14 -1343 -25 -1379 -5
-19 -8 -36 -6 -38 2 -2 17 18 34 44 20 31 33 68 38 103 6 48 13 62 59 110 l52
55 7 100 c4 55 13 125 21 155 7 30 16 84 20 120 6 60 -5 350 -21 584 l-7 97
144 -2 144 -1 23 52 c12 29 21 53 20 54 -2 1 -78 0 -169 -2 l-166 -4 -20 -48
c-12 -27 -17 -50 -13 -52 5 -2 -9 -22 -31 -45 l-39 -42 0 124 c0 68 -4 126 -8
129 -5 3 -21 -20 -35 -50z m43 -752 c1 -155 -3 -238 -10 -249 -9 -14 -10 -3
-6 46 3 35 6 150 6 254 0 105 2 188 5 185 3 -2 5 -109 5 -236z"/>
<path d="M886 2611 c-76 -149 -93 -246 -107 -611 -12 -330 -14 -877 -2 -908 8
-21 11 -19 39 31 25 43 29 58 21 78 -12 31 -11 573 2 899 11 262 27 400 60
498 11 31 18 58 16 60 -2 2 -15 -19 -29 -47z"/>
<path d="M383 1214 c-14 -30 -23 -57 -22 -58 2 -1 49 -1 104 2 l101 4 19 46
c11 26 22 50 23 54 2 4 -42 8 -98 8 l-101 0 -26 -56z"/>
</g>
</svg>
