<svg width="1346" height="1532" viewBox="0 0 1346 1532" fill="none" xmlns="http://www.w3.org/2000/svg">
<g clip-path="url(#clip0_101_84)">
<rect width="1346" height="1532" fill="#373131" fill-opacity="0.31"/>
<path d="M1553 1250.52C1553 1480.55 809.078 2003 447.3 2003C85.5215 2003 -327 788.456 -327 558.433C-327 328.409 102.556 1522.17 464.334 1522.17C826.113 1522.17 1553 1020.5 1553 1250.52Z" fill="#8CC63F"/>
<g style="mix-blend-mode:multiply">
<path d="M1232.79 1307.58C1275.98 1265.77 1340.27 1261.9 1340.27 1261.9C1340.27 1261.9 1151.64 1254.98 1195.55 1406.78C1196.18 1354.95 1210.6 1329 1232.79 1307.58Z" fill="#8CC63F"/>
<path d="M1339.45 1262.26C1339.45 1262.26 1275.35 1269.08 1233.91 1312.82C1212.74 1335.19 1199.37 1361.66 1200.75 1413C1197.82 1453.13 1167.57 1522.01 1167.57 1522.01C1174.22 1540.61 1190.22 1527.53 1190.22 1527.53C1184.52 1508.3 1211.95 1421.37 1214.55 1413.14C1256.09 1410.01 1374.64 1390.08 1339.45 1262.26Z" fill="#8CC63F"/>
<path d="M1144.95 1364.55C1115.95 1336.49 1072.76 1333.88 1072.76 1333.88C1072.76 1333.88 1199.4 1329.24 1169.87 1431.15C1169.48 1396.34 1159.8 1378.89 1144.95 1364.55Z" fill="#8CC63F"/>
<path d="M1073.32 1334.13C1073.32 1334.13 1116.35 1338.74 1144.2 1368.1C1158.42 1383.08 1167.37 1400.87 1166.45 1435.33C1168.43 1462.23 1188.71 1508.51 1188.71 1508.51C1184.26 1520.99 1173.46 1512.2 1173.46 1512.2C1177.25 1499.3 1158.88 1440.92 1157.13 1435.4C1129.25 1433.33 1049.72 1419.9 1073.32 1334.13Z" fill="#8CC63F"/>
</g>
</g>
<defs>
<clipPath id="clip0_101_84">
<rect width="1346" height="1532" fill="white"/>
</clipPath>
</defs>
</svg>
